<svg width="0" height="0" style="position:absolute">
    <symbol viewBox="-0.658000000000003 -1.875 384.24600000000004 119.917" id="amazon"
        xmlns="http://www.w3.org/2000/svg">
        <path
            d="M81.633 27.542V64.65a2.268 2.268 0 0 1-2.268 2.268H67.651a2.269 2.269 0 0 1-2.268-2.268V4.292a2.268 2.268 0 0 1 2.268-2.268h10.84a2.268 2.268 0 0 1 2.268 2.268v8.5S84.634.667 96.134.667c0 0 11.375-1.375 16 11.25 0 0 3.875-11.25 15.625-11.25 0 0 17.474-1.039 17.474 17.042l.133 9.958v37.108a2.268 2.268 0 0 1-2.268 2.268h-11.715a2.269 2.269 0 0 1-2.268-2.268l-.107-40.483c.333-9.167-7.083-8.5-7.083-8.5-9.333.167-8.435 11.875-8.435 11.875v37.108a2.268 2.268 0 0 1-2.268 2.268H99.508a2.269 2.269 0 0 1-2.268-2.268V25.208s.685-9.5-7.649-9.5c.001 0-8.249-1.083-7.958 11.834zM383.588 27.431v37.107a2.269 2.269 0 0 1-2.268 2.268l-12.183.236a2.269 2.269 0 0 1-2.268-2.268V25.208s.685-9.5-7.648-9.5c0 0-7.959-.392-7.959 14.503v34.438a2.269 2.269 0 0 1-2.268 2.268h-11.715a2.269 2.269 0 0 1-2.268-2.268V4.292a2.269 2.269 0 0 1 2.268-2.268h10.84a2.268 2.268 0 0 1 2.268 2.268v8.5S354.262.667 365.762.667c0 0 12.319-1.869 16.468 11.015.001-.001 1.358 2.657 1.358 15.749zM299.008.417c-14.98 0-27.125 12.625-27.125 33.875 0 18.709 9.375 33.875 27.125 33.875 16.75 0 27.125-15.166 27.125-33.875 0-20.875-12.144-33.875-27.125-33.875zm9.455 34.625c0 8-1 12.25-1 12.25-1.423 8.457-7.562 8.469-8.467 8.424-.977.039-7.168-.049-8.449-8.424 0 0-1-4.25-1-12.25v-1.333c0-8 1-12.25 1-12.25 1.281-8.375 7.473-8.463 8.449-8.425.905-.045 7.044-.034 8.467 8.425 0 0 1 4.25 1 12.25zM265.084 12.708v-8.66a2.269 2.269 0 0 0-2.268-2.268h-38.72a2.268 2.268 0 0 0-2.268 2.268v8.593a2.269 2.269 0 0 0 2.268 2.268h20.197l-23.906 34.68s-.942 1.406-.911 2.959v10.549s-.156 3.617 3.946 1.518c0 0 7.286-4.402 19.503-4.402 0 0 12.065-.15 20.109 4.781 0 0 3.339 1.518 3.339-1.82v-9.182s.303-2.43-2.884-3.947c0 0-9.258-5.084-21.399-4.25zM56.342 56.124l-3.667-5.582c-1.167-2.084-1.083-4.418-1.083-4.418V20.375C52.092-1.875 27.425.042 27.425.042 5.497.042 2.258 17.107 2.258 17.107c-.914 3.431 1.744 3.514 1.744 3.514l10.715 1.087s1.827.418 2.492-1.757c0 0 1.411-7.445 9.302-7.445 8.586 0 8.497 7.369 8.497 7.369v6.169c-17.14.573-25.083 5.331-25.083 5.331-10.583 6-9.917 17.917-9.917 17.917 0 19.416 18.5 18.582 18.5 18.582 11.833 0 18.833-8.666 18.833-8.666 2.083 3.668 5.917 7.166 5.917 7.166 1.918 2.08 3.917.334 3.917.334l8.667-7.416c1.916-1.418.5-3.168.5-3.168zm-32.059-.24c-5.566 0-7.635-5.531-6.711-10.967.925-5.436 5.729-9.708 17.437-9.583v3.305c.415 14.438-6.093 17.245-10.726 17.245zM212.008 56.124l-3.666-5.582c-1.167-2.084-1.084-4.418-1.084-4.418V20.375c.5-22.25-24.167-20.333-24.167-20.333-21.928 0-25.167 17.065-25.167 17.065-.914 3.431 1.744 3.514 1.744 3.514l10.715 1.087s1.827.418 2.492-1.757c0 0 1.411-7.445 9.302-7.445 8.586 0 8.497 7.369 8.497 7.369v6.169c-17.139.573-25.083 5.331-25.083 5.331-10.583 6-9.917 17.917-9.917 17.917 0 19.416 18.5 18.582 18.5 18.582 11.833 0 18.833-8.666 18.833-8.666 2.084 3.668 5.916 7.166 5.916 7.166 1.918 2.08 3.918.334 3.918.334l8.666-7.416c1.917-1.418.501-3.168.501-3.168zm-32.059-.24c-5.566 0-7.635-5.531-6.711-10.967.925-5.436 5.729-9.708 17.436-9.583v3.305c.416 14.438-6.091 17.245-10.725 17.245z" />
        <g>
            <path
                d="M241.504 104.862s-.98 1.705.224 2.086c0 0 1.36.531 3.056-1.043 0 0 12.369-10.805 12.667-30.477 0 0 .091-2.457-.895-3.129 0 0-3.875-3.428-17.809-2.385 0 0-12.146.82-18.777 6.707 0 0-.596.521-.596 1.191 0 0-.143 1.447 3.502.82 0 0 12.145-1.715 19.373-.82 0 0 3.727.447 4.77 1.715 0 0 1.714 1.416.819 6.109 0 .002-2.46 11.924-6.334 19.226z" />
            <path
                d="M239.055 85.989s1.814 2.35-1.113 4.377c0 0-31.267 25.01-83.767 25.01 0 0-54.042 2.666-99.167-38.334 0 0-1.582-1.389-.6-2.68 0 0 .878-1.188 3.151.104 0 0 42.449 26.451 98.199 26.451 0 0 38.75 1.5 78.5-15.5 0 0 3.167-1.641 4.797.572z" />
        </g>
    </symbol>
    <symbol id="asmodee" viewBox="0 0 200 32.2" style="enable-background:new 0 0 200 32.2"
        xml:space="preserve" xmlns="http://www.w3.org/2000/svg"><path d="M28.7,15c0-2.1,0.9-3.8,2.6-5.2c1.7-1.4,4.1-2.1,7-2.1s5.2,0.7,7,2.1c1.7,1.4,2.7,3.3,2.8,5.7h-6.2  c-0.2-2-1.4-3-3.7-3c-1.1,0-2,0.2-2.7,0.7c-0.6,0.5-0.9,1.1-0.9,1.9c0,0.8,0.5,1.4,1.4,1.9s2.1,0.8,3.4,1.1c1.3,0.3,2.7,0.6,4,1  s2.5,1.1,3.4,2.1s1.4,2.3,1.4,3.9c0,2.1-0.9,3.9-2.7,5.2s-4.1,2-7,2c-2.8,0-5.1-0.7-6.9-2c-1.8-1.3-2.8-3.2-3-5.7h6.2  c0.2,2,1.5,3,3.8,3c1.1,0,2-0.3,2.7-0.8s1-1.2,1-2s-0.5-1.5-1.4-1.9c-0.9-0.5-2.1-0.8-3.4-1.1c-1.3-0.3-2.7-0.6-4-0.9  c-1.3-0.4-2.5-1-3.4-2C29.2,17.8,28.7,16.6,28.7,15z M58.4,8.1v3.6c1.5-2.6,4-3.9,7.4-3.9c1.8,0,3.4,0.4,4.8,1.2s2.5,2,3.3,3.6  c0.8-1.5,2-2.7,3.4-3.5c1.4-0.9,3.1-1.3,4.9-1.3c2.8,0,5.1,0.9,6.9,2.7c1.7,1.8,2.6,4.3,2.6,7.5v14h-6V18.7c0-1.9-0.5-3.3-1.4-4.3  s-2.2-1.5-3.9-1.5c-1.6,0-2.9,0.5-3.9,1.5s-1.4,2.4-1.4,4.3v13.2h-6V18.7c0-1.9-0.5-3.3-1.4-4.3s-2.2-1.5-3.9-1.5  c-1.6,0-2.9,0.5-3.9,1.5s-1.4,2.4-1.4,4.3v13.2h-6.1V8.1H58.4z M98.7,28.8c-2.3-2.3-3.5-5.2-3.5-8.9s1.2-6.6,3.5-8.9  c2.4-2.2,5.3-3.4,8.7-3.4c3.5,0,6.4,1.1,8.7,3.4c2.4,2.2,3.5,5.2,3.5,8.9s-1.2,6.6-3.5,8.9c-2.4,2.3-5.3,3.4-8.8,3.4  C103.9,32.2,101,31.1,98.7,28.8z M107.4,27.1c1.7,0,3.1-0.6,4.4-1.9c1.2-1.2,1.8-3,1.8-5.3s-0.6-4-1.8-5.3c-1.2-1.2-2.7-1.9-4.4-1.9  c-1.7,0-3.1,0.6-4.3,1.9c-1.2,1.2-1.8,3-1.8,5.3s0.6,4.1,1.8,5.3C104.3,26.5,105.7,27.1,107.4,27.1z M18.6,8.1V10  c-1.9-1.6-4.1-2.2-6.3-2.2c-3.5,0-6.4,1.1-8.7,3.4C1.2,13.3,0,16.3,0,19.9c0,3.7,1.2,6.6,3.5,8.9s5.2,3.4,8.7,3.4  c2.2,0,4.6-1,6.4-2.3v1.9h6V8.1C24.6,8.1,18.6,8.1,18.6,8.1z M16.6,25.3c-1.2,1.2-2.7,1.9-4.4,1.9s-3.1-0.6-4.3-1.8  c-1.2-1.2-1.8-3-1.8-5.3s0.6-4.1,1.8-5.3s2.6-1.9,4.3-1.9s3.2,0.6,4.4,1.9c1.2,1.2,1.8,3,1.8,5.3C18.4,22.2,17.8,24,16.6,25.3z   M140.5,0v9.7c-1.8-1.3-4.1-2-6.4-2c-3.5,0-6.4,1.1-8.7,3.4c-2.3,2.2-3.5,5.2-3.5,8.9s1.2,6.6,3.5,8.9s5.2,3.4,8.7,3.4  c2.2,0,4.6-1,6.4-2.3v1.9h6V0H140.5z M138.4,25.3c-1.2,1.2-2.7,1.9-4.4,1.9s-3.1-0.6-4.3-1.8c-1.2-1.2-1.8-3-1.8-5.3  s0.6-4.1,1.8-5.3s2.6-1.9,4.3-1.9s3.2,0.6,4.4,1.9c1.2,1.2,1.8,3,1.8,5.3C140.2,22.2,139.6,24,138.4,25.3z M162,32.2  c-3.5,0-6.3-1.1-8.5-3.4c-2.2-2.2-3.3-5.2-3.3-8.9s1.1-6.7,3.3-8.9s5-3.3,8.5-3.3s6.3,1.1,8.6,3.2c2.2,2.2,3.4,5,3.4,8.7  c0,0.8-0.1,1.6-0.2,2.3h-17.4c0.1,1.5,0.7,2.8,1.7,3.7c1,0.9,2.3,1.4,3.8,1.4c2.1,0,3.6-0.9,4.6-2.6c0,0,3,2.2,4.6,3.6  c-0.6,0.7-1.3,1.4-2.1,1.9C167.2,31.5,164.8,32.2,162,32.2L162,32.2z M165.9,14.3c-1.1-0.9-2.4-1.4-3.9-1.4s-2.8,0.5-3.8,1.4  s-1.6,2.2-1.8,3.8h11.3C167.6,16.5,167,15.2,165.9,14.3z M188,32.2c-3.5,0-6.3-1.1-8.5-3.4c-2.2-2.2-3.3-5.2-3.3-8.9  s1.1-6.7,3.3-8.9s5-3.3,8.5-3.3s6.3,1.1,8.6,3.2c2.2,2.2,3.3,5,3.3,8.7c0,0.8-0.1,1.6-0.2,2.3h-17.4c0.1,1.5,0.7,2.8,1.7,3.7  c1,0.9,2.3,1.4,3.8,1.4c2.1,0,3.6-0.9,4.6-2.6c0,0,3,2.2,4.6,3.6c-0.6,0.7-1.3,1.4-2.1,1.9C193.2,31.5,190.8,32.2,188,32.2L188,32.2  z M192,14.3c-1.1-0.9-2.4-1.4-3.9-1.4s-2.8,0.5-3.8,1.4s-1.6,2.2-1.8,3.8h11.3C193.6,16.5,193.1,15.2,192,14.3z"/></symbol>
    <symbol id="disney" viewBox="0 0 700 294.4" style="enable-background:new 0 0 700 294.4"
        xml:space="preserve" xmlns="http://www.w3.org/2000/svg"><path d="M602.2,128.6c-11.7,2.7-42.6,4.2-42.6,4.2l-3.8,12.2c0,0,15.3-1.3,26.5-0.2c0,0,3.6-0.3,4,4  c0.2,4.4-0.3,9-0.3,9s-0.3,2.7-4,3.4c-4.3,0.7-33.3,2-33.3,2L544,179c0,0-1.7,3.6,2.2,2.6c3.6-1,34-6.8,38-6c4.2,1,9,6.8,7.6,12  c-1.6,6.3-32,25.7-50.4,24.4c0,0-9.7,0.6-17.8-12.5c-7.8-12.5,2.7-36,2.7-36s-4.7-11-1.2-15c0,0,2-1.7,8-2.2l7.5-15.4  c0,0-8.5,0.5-13.5-5.7c-4.6-6-5-8.6-1.4-10.2c3.8-2,39-8.3,63.2-7.5c0,0,8.5-1,16,13.7C604.9,121.2,608.3,127.2,602.2,128.6   M511,187.8c-3,7.3-11.3,15-21.3,10.3c-10.2-4.8-26.3-37.6-26.3-37.6s-6-12.2-7.2-11.8c0,0-1.3-2.4-2,11c-1,13.3,0.2,39.2-5.3,43.3  c-5,4-11,2.3-14.4-2.4c-2.8-4.7-4-16-2.4-35.7c1.8-19.7,6.3-40.7,12-47.2c6-6.6,10.8-1.8,12.6,0c0,0,7.7,7,20.7,27.7l2.2,3.8  c0,0,11.8,19.7,13,19.6c0,0,1,1,1.8,0.2c1.2-0.3,0.8-6.7,0.8-6.7S493,141,482,105c0,0-1.6-4.6-0.5-9c1-4,5.3-2,5.3-2s16.6,8,24.7,35  C519.5,156,514.1,180.5,511,187.8 M429.6,118.5c-1.6,2.8-2.3,6.7-9.2,7.8c0,0-67,4.7-70.3,9.4c0,0-2.2,2.8,1.4,3.5  c3.8,0.8,19,2.8,26.2,3.2c7.8,0,34,0.2,43.6,12c0,0,5.5,5.6,5.3,18.3c-0.2,13-2.5,17.6-7.6,22.3c-5.3,4.4-50.7,24.8-80-6.4  c0,0-13.4-15,4.7-26.4c0,0,13-8,46.3,1.3c0,0,10,3.6,9.6,7.3c-0.6,4-8.3,8-19.5,7.8c-10.8-0.3-18.8-5.5-17.2-4.6  c1.5,0.5-11.7-6.4-15.8-1.7c-4,4.4-3,7,1,9.7c10,5.8,49.3,3.7,61-9.4c0,0,4.7-5.3-2.4-9.6c-7-4-27.4-6.5-35.3-6.8  c-7.5-0.4-35.6,0-39.8-7.3c0,0-4-5.2,0.4-19.4c4.6-15,37.3-20.8,51.5-22c0,0,39-1.6,46.3,6.4C429.8,113.9,430.8,115.7,429.6,118.5   M319,206.4c-4.7,3.5-14.7,2-17.6-2c-2.8-3.5-3.8-17.3-3.3-39c0.7-22.2,1-49.4,6-53.8c5-4.3,8-0.5,10,2.4c2,3,4.6,6.3,5,13.2  c0.6,7,2.3,43,2.3,43s2.2,32.8-2.3,36.2 M329,89.4c-13.8,4.7-23.2,3.2-31.2-0.3c-3.5,6.3-5.6,8.2-8.2,8.6c-4,0.4-7.5-6-8-8  c-0.8-1.5-2.7-4.2-0.4-10.3c-7.8-7-8.4-16.4-7-22.7c1.8-7.4,15-35.2,55-38.5c0,0,19.6-1.4,23,9h0.6c0,0,19,0,18.6,17  c0,17-21,38.2-42.4,45.5 M346.8,41c-12.6,2-32,18.8-41.3,32.7c14.3,2.6,39.3,1.6,50.5-21C356,52.7,361.3,38.5,346.8,41 M291.5,52  c-4,6.5-4.2,10.4-2.3,13c4.7-7,13-18,25.5-26.6C305.1,39.4,297,43.4,291.5,52 M632.2,205.7c-9.2,22.6-17,45.5-21.5,79.8  c0,0-1,6.7-6.5,4.5c-5.5-2-14.5-11-16.5-23.7c-2-16.6,5.4-44.6,20.5-76.8c-4.4-7-7.5-17.4-5-32c0,0,4-27,31-51.4c0,0,3.2-2.7,5-1.8  c2.2,1,1.3,9.6-0.5,14c-1.6,4.2-13.6,25-13.6,25s-7.5,14.2-5.4,25.3c14.2-21.8,46.5-66,66.5-52c12.7,9,12.7,38,3.2,54.8  c-7.5,13.3-28.7,40.8-57,34.4 M674,137.8c-7.4,8-20.6,23.2-31,43.8c11-1.2,21.7-7.3,25-10.4c5.3-4.7,17.5-17.4,15.6-34.2  C683.6,137,682.4,128.2,674,137.8 M226,217.5c-35.4,10.8-68.8,5.8-87,1c-0.5,7.4-1.3,10.5-2.5,11.7c-1.4,1.6-13,8.2-19.4-1.2  c-2.8-4.5-4.2-12.6-5-20c-41-18.6-60-46-60.6-47c-1-1-10.3-10.7-1-22.7c8.7-10.8,37.5-21.7,63.3-26c1-22,3.4-39,6.5-46.5  c3.7-9,8.4-1,12.6,5c3.4,4.5,5.5,23.8,5.7,39.2c16.8-0.8,27,0.4,45.7,4c24.6,4.2,41,16.8,39.7,31c-1.2,14-14,19.8-19,20.2  c-5,0.4-13-3.3-13-3.3c-5.6-2.6-0.5-5,6-7.8c7.2-3.5,5.6-7,5.6-7c-2.6-8-34.5-13.3-66.2-13.3c0,17.5,0.7,46.5,1.2,63.4  c22.2,4.2,38.8,3.3,38.8,3.3s81-2.3,83.3-54c2.5-51.8-81-101.4-142.5-117C56.8,14.4,22,25.8,19,27.3c-3.3,1.6-0.3,2.2-0.3,2.2  S22,30,28,32s1.2,5,1.2,5C18.7,40.6,7,38.5,4.7,33.7c-2.3-4.7,1.5-9,6-15.3c4.2-6.5,9-6.3,9-6.3c76-26.5,168.8,21,168.8,21  c86.8,43.8,101.6,95.3,100,115.3C287.1,168.1,279.5,201.4,226,217.5 M59,146c-8.6,4-2.6,10.4-2.6,10.4c16.2,17.3,36,28.2,55,35  c2.2-30,2-40.7,2-55.8C84,137.6,67,142.4,59,146"/></symbol>
    <symbol id="espn" viewBox="0 0 554 137" style="enable-background:new 0 0 554 137"
        xml:space="preserve" xmlns="http://www.w3.org/2000/svg"><path d="M181.1,0.3c-20.6,0-34.3,10.8-36.2,27.1c-0.4,3.8-0.9,7.5-1.4,11.3h268.1c0,0,0.5-4,0.9-7.1  c2-16.4-4.9-31.2-30.2-31.2v0C382.3,0.4,191.9,0.4,181.1,0.3z M17.4,0.4l-4.7,38.3h121.6L139,0.4L17.4,0.4L17.4,0.4L17.4,0.4z   M425.6,0.4l-4.7,38.3h131.8c0,0,0.2-1.4,0.7-5.9c3.2-25.2-13-32.4-28.7-32.4H425.6z M419.1,53.3l-10.3,83.7l45.5,0l10.3-83.6  L419.1,53.3L419.1,53.3L419.1,53.3z M505.5,53.3l-10.3,83.7l45.5,0L551,53.3L505.5,53.3L505.5,53.3L505.5,53.3z M10.9,53.3  L0.7,136.9h121.6l4.5-36.3l-76.1,0L52.5,85h76.1l3.9-31.7L10.9,53.3C10.9,53.3,10.9,53.3,10.9,53.3z M141.7,53.3  c-3.3,21.8,7.6,31.7,23.1,31.7c8.4,0,61.5,0,61.5,0l-1.9,15.7l-88.5,0l-4.5,36.3c0,0,96.3,0,100.2,0c3.2-0.2,25.8-0.8,33.4-19.3  c2.5-6,4.7-27.4,5.3-31.9c3.5-26.2-14.6-32.4-28.8-32.4C233.7,53.3,157.2,53.3,141.7,53.3z M283.3,53.3L273,136.9h45.5l6.4-51.9H382  c16.2,0,24.9-8.7,26.5-20.4c0.5-3.8,1-7.5,1.4-11.3L283.3,53.3C283.3,53.3,283.3,53.3,283.3,53.3z"/></symbol>
    <symbol id="fifa" viewBox="0 0 1000 328" style="enable-background:new 0 0 1000 328"
        xml:space="preserve" xmlns="http://www.w3.org/2000/svg"><path d="M283,0h104v327H283 M0,0h253l-26,72H104v66h99l-26,72h-73v118H0 M456,0h253l-26,72H560v66h99l-26,72h-73v118  H456 M775,0L656,328h101l13-43h116l13,43h101L881,0 M828,87l39,133h-78"/></symbol>
    <symbol id="google" viewBox="0 0 272 92" style="enable-background:new 0 0 272 92"
        xml:space="preserve" xmlns="http://www.w3.org/2000/svg"><path d="M115.8,47.2c0,12.8-10,22.2-22.2,22.2S71.2,60,71.2,47.2c0-12.9,10-22.2,22.2-22.2S115.8,34.3,115.8,47.2z   M106,47.2c0-8-5.8-13.4-12.5-13.4S81,39.2,81,47.2c0,7.9,5.8,13.4,12.5,13.4S106,55.1,106,47.2z"/><path d="M163.8,47.2c0,12.8-10,22.2-22.2,22.2s-22.2-9.4-22.2-22.2c0-12.8,10-22.2,22.2-22.2S163.8,34.3,163.8,47.2z   M154,47.2c0-8-5.8-13.4-12.5-13.4S129,39.2,129,47.2c0,7.9,5.8,13.4,12.5,13.4S154,55.1,154,47.2z"/><path d="M209.8,26.3v39.8c0,16.4-9.7,23.1-21.1,23.1c-10.8,0-17.2-7.2-19.7-13.1l8.5-3.5c1.5,3.6,5.2,7.9,11.2,7.9  c7.3,0,11.8-4.5,11.8-13v-3.2h-0.3c-2.2,2.7-6.4,5-11.7,5c-11.1,0-21.2-9.7-21.2-22.1c0-12.5,10.2-22.3,21.2-22.3  c5.3,0,9.5,2.4,11.7,5h0.3v-3.6L209.8,26.3L209.8,26.3z M201.2,47.3c0-7.8-5.2-13.5-11.8-13.5c-6.7,0-12.4,5.7-12.4,13.5  c0,7.7,5.6,13.4,12.4,13.4C196,60.6,201.2,55,201.2,47.3z"/><path d="M225,3v65h-9.5V3H225z"/><path d="M262,54.5l7.6,5c-2.4,3.6-8.3,9.8-18.5,9.8c-12.6,0-22-9.7-22-22.2C229.1,34,238.6,25,250,25  c11.5,0,17.1,9.2,19,14.1l1,2.5l-29.6,12.3c2.3,4.5,5.8,6.7,10.8,6.7C256.1,60.6,259.5,58.2,262,54.5L262,54.5z M238.7,46.5  l19.8-8.2c-1.1-2.8-4.4-4.7-8.2-4.7C245.4,33.6,238.5,37.9,238.7,46.5z"/><path d="M35.3,41.4V32H67c0.3,1.6,0.5,3.6,0.5,5.7c0,7.1-1.9,15.8-8.2,22c-6,6.3-13.8,9.7-24,9.7  c-19,0-34.9-15.5-34.9-34.4s16-34.4,34.9-34.4c10.5,0,18,4.1,23.6,9.5l-6.6,6.6c-4-3.8-9.5-6.7-17-6.7c-13.9,0-24.7,11.2-24.7,25  s10.8,25,24.7,25c9,0,14.1-3.6,17.4-6.9c2.7-2.7,4.4-6.5,5.1-11.7L35.3,41.4z"/></symbol>
    <symbol id="hbo" viewBox="0 0 512 211" style="enable-background:new 0 0 512 211"
        xml:space="preserve" xmlns="http://www.w3.org/2000/svg"><sodipodi:namedview bordercolor="#111111" borderopacity="1" id="gnamedview202" xmlns:inkscape="http://www.inkscape.org/namespaces/inkscape" inkscape:current-layer="hbo-logo-blk" inkscape:cx="129.33648" inkscape:cy="119.7796" inkscape:deskcolor="#d1d1d1" inkscape:pagecheckerboard="1" inkscape:pageopacity="0" inkscape:showpageshadow="0" inkscape:window-height="1009" inkscape:window-maximized="1" inkscape:window-width="1920" inkscape:window-x="-8" inkscape:window-y="-8" inkscape:zoom="2.3543242" pagecolor="#ffffff" showgrid="false" xmlns:sodipodi="http://sodipodi.sourceforge.net/DTD/sodipodi-0.dtd"/><g id="ghbo-logo-blk" transform="translate(0,3.0006123e-5)"><polyline id="gFill-15" points="150.2,209.8 94.2,209.8 94.2,129.6 57.8,129.6 57.8,209.8 0,209.8 0,3.1 57.8,3.1    57.8,80 94.2,80 94.2,3.1 150.2,3.1 150.2,209.8  "/><path id="gFill-16" d="M407,146.3c22.7,0,41.2-18.5,41.2-41.3c0-22.8-18.4-41.3-41.2-41.3c-22.7,0-41.2,18.5-41.2,41.3   C365.8,127.8,384.3,146.3,407,146.3z M354.6,105c0-29,23.5-52.5,52.4-52.5c28.9,0,52.4,23.5,52.4,52.5c0,29-23.5,52.5-52.4,52.5   C378.1,157.5,354.6,134,354.6,105z M281.7,105c6.5-0.8,17.3-8.3,21.1-13c-1.3,5.9-1.4,22.9,0.1,28.8   C298.6,114.1,288.3,105.8,281.7,105L281.7,105z M244,49.4c8.2,0,14.7,8.1,14.7,17.4s-6.5,17.4-14.7,17.4h-28.3V49.4H244z    M243.9,126.8c8.2,0,14.7,8.2,14.7,17.4c0,9.3-6.5,17.4-14.7,17.4h-28.3v-34.9H243.9z M407,210.8c57.7,0,104.6-48,104.6-105.9   C511.6,45.9,464.7,0,407,0c-57.6,0-87,42.5-94.3,59.6c0.1-25.8-25.3-56.1-54.9-56.2h-95.4v206.3l89,0c35.9,0,61.4-31.2,61.4-57.9   C321,168.7,349.4,210.8,407,210.8L407,210.8z"/></g></symbol>
    <symbol id="madison-square-park" viewBox="0 0 80.9 70" style="enable-background:new 0 0 80.9 70"
        xml:space="preserve" xmlns="http://www.w3.org/2000/svg"><g id="hmspc-logo-compact-nav2"><g id="hGroup-2" transform="translate(-0.000000, -0.000000)"><g id="hGroup_00000077287574734734185820000012044708880298920325_" transform="translate(15.168778, 8.775185)"><polygon id="hPath_00000134247259996479200810000008704605179689569410_" points="3.1,29.7 3.1,29.8 -2.9,28.6      2.6,34.1 1.3,35.4 -6.4,27.7 -5,26.3 1,27.6 -0.3,21.6 1.1,20.2 8.8,27.9 7.4,29.2 1.9,23.7 3.1,29.7    "/><path id="hShape_00000089574282276958051290000005863624132081034175_" d="M18.5,18.2L17,19.6l-2.6-1.1l-3.6,3.6     l1.1,2.6l-1.4,1.4L6.1,15.1l1.2-1.2L18.5,18.2L18.5,18.2z M8.3,16.1l1.8,4.4l2.6-2.6L8.3,16.1z"/><path id="hShape_00000101087947674074568440000005876462904731258299_" d="M22.8,13.8L20,16.7L12.3,9l2.9-2.9     c2.4-2.4,5.7-2.4,7.9-0.3C25.2,8.1,25.2,11.4,22.8,13.8L22.8,13.8z M16.4,7.4l-1.5,1.5l5.2,5.2l1.5-1.5c1.6-1.6,1.6-3.7,0.1-5.3     C20.2,5.8,18,5.8,16.4,7.4L16.4,7.4z"/><path id="hPath_00000053514277259714633480000018215037025491922850_" d="M28.8,6c0.5,0.5,0.5,1.4,0,1.9     c-0.5,0.5-1.4,0.5-1.9,0c-0.5-0.5-0.5-1.4,0-1.9C27.4,5.5,28.3,5.5,28.8,6z"/><g transform="translate(10.394342, 17.100563)"><path id="hPath_00000129206983527958996080000001684470115975492793_" d="M3.2,24.8c2-1.2,3.4-1.5,4.7-0.2      c1.4,1.4,1.2,3.4-0.4,5c-1.2,1.2-2.7,1.9-4.4,2l-0.2-1.8c1.4-0.1,2.5-0.5,3.4-1.4c0.8-0.8,1-1.7,0.4-2.3      c-0.6-0.6-1.2-0.5-2.9,0.5c-2,1.2-3.4,1.7-4.9,0.3c-1.3-1.3-1.1-3.3,0.4-4.8c1.1-1.1,2.3-1.7,3.7-1.8l0.3,1.7      c-1.2,0.2-2.2,0.6-2.9,1.3c-0.8,0.8-0.8,1.7-0.3,2.2C0.8,26,1.4,25.9,3.2,24.8L3.2,24.8z"/><path id="hShape_00000134230135370293766180000015852734527443349382_" d="M19,16.4l0.1,1.8l-1.7,0.1      c-0.2,1.1-0.7,2.2-1.6,3.1c-2.4,2.4-5.8,2.2-7.9,0s-2.3-5.6,0-8c2.4-2.4,5.8-2.2,8,0c0.9,0.9,1.4,2,1.6,3.1L19,16.4z M13.1,18.6      L13,16.8l2.5-0.1c-0.1-0.7-0.5-1.3-1.1-1.8c-1.5-1.5-3.8-1.7-5.3-0.1c-1.5,1.5-1.4,3.8,0.1,5.3c1.5,1.5,3.8,1.7,5.3,0.1      c0.5-0.5,0.8-1.1,0.9-1.7L13.1,18.6L13.1,18.6z"/></g><path id="hPath_00000059298124784995673830000001403534002150836923_" d="M32.8,30.1c0.5,0.5,0.5,1.4,0,1.9     c-0.5,0.5-1.4,0.5-1.9,0c-0.5-0.5-0.5-1.4,0-1.9C31.4,29.6,32.3,29.6,32.8,30.1L32.8,30.1z"/><path id="hShape_00000039118282978738263290000001358866223337768097_" d="M40.1,46.9l-1.5,1.5l2.5,2.5l-1.3,1.3     L32,44.5l3-3c1.8-1.8,3.9-1.9,5.5-0.3C42.2,42.9,41.7,45.2,40.1,46.9L40.1,46.9z M36.1,42.9l-1.6,1.6l2.8,2.8l1.6-1.6     c1-1,1.1-2.2,0.3-3C38.2,41.7,37.1,41.9,36.1,42.9L36.1,42.9z"/><polygon id="hPath_00000079465530287656132140000012827880233452500870_" points="54.2,37.7 52.5,39.3 46.5,38.5      46.5,40.9 48.7,43.1 47.4,44.5 39.7,36.8 41.1,35.5 44.9,39.3 44.7,31.8 46.4,30.2 46.5,36.7 54.2,37.7    "/><path id="hPath_00000070080337680879279670000010031420792935331759_" d="M56.5,33.7c0.5,0.5,0.5,1.4,0,1.9     c-0.5,0.5-1.4,0.5-1.9,0c-0.5-0.5-0.5-1.4,0-1.9C55.1,33.2,55.9,33.2,56.5,33.7L56.5,33.7z"/></g><path id="hShape_00000117661817178706351500000000464844433605841593_" d="M78.8,41.7L78.8,41.7L66.3,29.2L65.1,28    L54.8,38.3l0,0L42.2,25.8l10.4-10.4L52,14.9l0,0L37.6,0.5l0,0l-1.2,1.2L2,36.2l-1.2,1.2L2,38.6l12.5,12.5l0.6,0.6l0.6,0.6    l12.5,12.5l0.5,0.5l0.7,0.7l10.4-10.4l0,0l12.5,12.5l0.5,0.5l0.7,0.7l26.5-26.5L78.8,41.7L78.8,41.7z M15.7,49.9L3.2,37.4    L37.6,2.9l12.5,12.5L41,24.6l0,0L15.7,49.9L15.7,49.9L15.7,49.9z M16.9,51.1L41,27l12.5,12.5L29.4,63.7L16.9,51.1z M53.5,67    L41,54.5l15-15l9.1-9.1l12.5,12.5L53.5,67z"/></g></g></symbol>
    <symbol id="marvel" viewBox="0 0 1000 402.5" style="enable-background:new 0 0 1000 402.5"
        xml:space="preserve" xmlns="http://www.w3.org/2000/svg"><g><polygon points="311.5,264.5 345.6,264.5 328.2,120.1  "/><path d="M474.8,92.5c-0.1,0-0.2,0-0.3,0v108.7c4.8,0,9.7-1.1,14.4-3.4c14.2-6.9,26.4-24.1,26.4-51.5   C515.2,94,479.6,92.5,474.8,92.5z"/><path d="M0,0v402.5h1000V0H0z M846.3,231.8h-54.7v77.5h54.7v60.8H731V63.8l-48.6,306.3l-71.1,0.2   c0,0-36.2-216.9-36.3-217.4v0c5.9,35-16.2,71.7-35.7,86.1l38.5,131.1h-0.1h-0.1l0,0.1h-0.1h-59.6H518l-29.3-111.8l-14.2,2.1v109.7   h-0.1h-0.1v0.1h-0.1l-115.5-0.1l-7.1-52h-47.4l-7.1,52H179.5V207.2l-27.4,162.9h-32.4L91.9,207.2v162.9h-61V32.2h77.5l27.2,174.6   l27.9-174.6H241l0,310.8l46.6-310.8l81,0l45.1,300l0.2-300c0,0,61.5,0,61.9,0c55.7,0,81,40.8,88.1,54.9l-6.9-54.9h61.8L646.6,238   l28.2-205.8h171.4v61.6h-54.7v76.3h54.7V231.8z M969.2,370H856.8V32.1h60.5v277.1h51.9V370z"/></g></symbol>
    <symbol id="meta" viewBox="0 0 948 191" style="enable-background:new 0 0 948 191"
        xml:space="preserve" xmlns="http://www.w3.org/2000/svg"><desc>Logo of Meta Platforms -- Graphic created by Detmar Owen</desc><path id="jLogo0" d="M31.1,126c0,11,2.4,19.4,5.6,24.5c4.1,6.7,10.3,9.5,16.6,9.5c8.1,0,15.5-2,29.8-21.8  c11.4-15.8,24.9-38.1,34-52l15.4-23.6c10.7-16.4,23-34.6,37.2-47C181.1,5.6,193.5,0,206.1,0c21.1,0,41.1,12.2,56.5,35.1  c16.8,25.1,25,56.7,25,89.3c0,19.4-3.8,33.6-10.3,44.9c-6.3,10.9-18.5,21.8-39.1,21.8v-31c17.6,0,22-16.2,22-34.7  c0-26.4-6.2-55.7-19.7-76.7c-9.6-14.9-22.1-23.9-35.8-23.9c-14.9,0-26.8,11.2-40.2,31.2c-7.1,10.6-14.5,23.5-22.7,38.1l-9.1,16.1  c-18.2,32.3-22.8,39.6-31.9,51.8C84.7,182.9,71.1,191,53.2,191c-21.3,0-34.7-9.2-43-23.1C3.3,156.6,0,141.8,0,124.9L31.1,126z"/><path id="jLogo1" d="M24.5,37.3C38.7,15.3,59.3,0,82.8,0c13.7,0,27.2,4,41.4,15.6c15.5,12.6,32,33.5,52.6,67.8l7.4,12.3  c17.8,29.7,28,45,33.9,52.2c7.6,9.3,13,12,19.9,12c17.6,0,22-16.2,22-34.7l27.4-0.9c0,19.4-3.8,33.6-10.3,44.9  c-6.3,10.9-18.5,21.8-39.1,21.8c-12.8,0-24.1-2.8-36.7-14.6c-9.6-9.1-20.9-25.2-29.6-39.7l-25.8-43.1c-12.9-21.6-24.8-37.7-31.7-45  c-7.4-7.8-16.9-17.3-32-17.3c-12.3,0-22.7,8.6-31.4,21.8L24.5,37.3z"/><path id="jLogo2" d="M82.3,31.2c-12.3,0-22.7,8.6-31.4,21.8C38.6,71.6,31.1,99.3,31.1,126c0,11,2.4,19.4,5.6,24.5  l-26.5,17.4C3.3,156.6,0,141.8,0,124.9c0-30.8,8.4-62.8,24.5-87.6C38.7,15.4,59.3,0,82.8,0L82.3,31.2z"/><path id="jText" d="M347.9,6h35.9L445,116.6L506.1,6h35.2v181.6h-29.3V48.5l-53.6,96.4h-27.5l-53.6-96.4v139.2h-29.3V6z   M633,73.8c-21,0-33.7,15.8-36.7,35.4h71.3C666.2,89,654.6,73.8,633,73.8L633,73.8z M567.3,120.3c0-41.2,26.6-71.2,66.3-71.2  c39,0,62.3,29.6,62.3,73.4v8h-99.5c3.5,21.3,17.7,35.7,40.5,35.7c18.2,0,29.6-5.6,40.3-15.7l15.6,19.1c-14.7,13.5-33.3,21.3-57,21.3  C592.9,190.9,567.3,159.6,567.3,120.3z M731.4,76.3h-27v-24h27V12.7h28.3v39.7h41v24h-41v60.8c0,20.8,6.6,28.1,23,28.1  c7.5,0,11.7-0.6,18-1.7v23.7c-7.9,2.2-15.4,3.2-23.5,3.2c-30.5,0-45.8-16.7-45.8-50.1L731.4,76.3z M919.7,99.7  c-5.7-14.3-18.3-24.9-37-24.9c-24.2,0-39.7,17.2-39.7,45.1c0,27.3,14.3,45.3,38.5,45.3c19.1,0,32.7-11.1,38.1-24.9V99.7z M948,187.6  h-27.8v-18.9c-7.8,11.1-21.9,22.2-44.8,22.2c-36.8,0-61.4-30.8-61.4-70.9c0-40.5,25.2-70.8,62.9-70.8c18.7,0,33.3,7.5,43.2,20.6  V52.4H948V187.6z"/></symbol>
    <symbol id="niantic" viewBox="0 0 201.9 267.7" style="enable-background:new 0 0 201.9 267.7"
        xml:space="preserve" xmlns="http://www.w3.org/2000/svg"><path d="M16.5,252.8L3.7,239.6l-0.1-0.1H1.9v22.1h4.6v-13.2l12.7,13.1l0.1,0.1h1.8v-22.1h-4.6L16.5,252.8z M37.7,261.6  h4.6v-22.2h-4.6V261.6z M71.4,253.6l-5.9,0.1l3-7.8L71.4,253.6z M79.2,261.6l-8.5-22l0-0.1h-4.5l-8.5,21.9l-0.1,0.3h4.9l1.3-3.3H73  l1.3,3.3L79.2,261.6z M111.8,261.6h1.8v-22.1H109v13.3l-12.8-13.3l-0.1-0.1h-1.7v22.1h4.6v-13.2L111.8,261.6L111.8,261.6   M147.8,239.5h-18.6v4.5h7v17.7h4.6V244h7V239.5z M163.2,261.6h4.6v-22.2h-4.6V261.6z M198.7,255.2c-1.3,1.1-2.9,1.7-4.8,1.7  c-1.8,0-3.3-0.6-4.4-1.7c-1.1-1.1-1.7-2.7-1.7-4.7c0-1.8,0.6-3.3,1.7-4.5c1.1-1.2,2.6-1.8,4.4-1.8c1.7,0,3.4,0.6,4.8,1.7l0.1,0.1  l3.1-3.5l-0.2-0.1c-2.2-2-4.8-3-7.9-3c-3,0-5.6,1.1-7.6,3.2c-2,2.1-3.1,4.8-3.1,7.8c0,3.2,1,5.8,3.1,7.9c2,2.1,4.6,3.2,7.6,3.2  c3,0,5.7-1,7.9-2.9l0.2-0.1l-3.1-3.5L198.7,255.2z M150.9,77.5l1-3.5c1.2-3,2.1-6.2,2.6-9.4c15.6,8.6,21.1,14,22.2,16  C173.8,81.7,164.7,80.8,150.9,77.5L150.9,77.5z M118.1,67.6c-6.2-2.2-12.4-4.5-18.6-6.9C89.3,56.6,80.1,52.5,72,48.7  c9.2-2.9,18.5-5.5,27.9-7.8c5.9-1.5,11.9-2.9,17.9-4.2c0,0,0,0.1,0,0.1c10-2.1,20.9-4.2,30.9-5.6l0,0c15.1-2,25.2-2.1,28.9-0.9  c-2.4,2.2-9.6,6.9-24,12.7c-0.4-1.4-0.8-2.8-1.3-4.2c-9.5,0.1-19.6,1.5-32.5,4.8c0.6,3,0.9,6,0.9,9C120.7,57.9,119.8,63,118.1,67.6  L118.1,67.6z M63.2,44.4c-0.9-0.5-1.9-0.9-2.8-1.4c1.9-8.7,6.2-16.1,12-21.1c-2.8,7.3-3.1,16.3-3.1,20.5  C67.2,43,65.2,43.7,63.2,44.4z M53,39c-12.1-6.8-19.4-12.3-21.1-15.2c2.2-0.3,8.6-0.3,26.8,4.2C56.3,31.4,54.4,35.1,53,39z   M80.4,16.9c3-1.2,6.3-1.9,9.6-1.9c10.1,0,19.1,6.1,24.7,15.4c-5.5,1.2-11,2.5-16.5,3.9c-8.3,2.1-16.6,4.4-24.8,6.9  C73.6,33.6,75,21.4,80.4,16.9z M76.5,100l6.8,52.6c-0.8-0.4-1.6-0.7-2.3-1.1L62.4,88.6C66.4,93.2,71.2,97,76.5,100z M81.1,102.3  L81.1,102.3c6.3,2.2,10,7.4,11.1,12.5c0,0.8,0.1,1.5,0.3,2.1c0,0.1,0,0.2,0,0.3h0.1c0.4,1.3,1.3,2.2,2.8,2.2h14.5  c1.5,0,2.3-0.9,2.8-2.2h0.1c0-0.1,0-0.2,0-0.3c0.2-0.7,0.3-1.4,0.3-2.1c1.1-5.1,4.8-10.3,11.1-12.5l0,0c0.1,0,0.2-0.1,0.3-0.1  l-6,47.3c-11.7-9.1-25.5-14.9-26-15.2l2.6,26.4c-0.8-0.8-1.6-1.7-2.6-2.4c-1.4-1.1-3-2.2-4.6-3.2L81.1,102.3  C81,102.3,81.1,102.3,81.1,102.3L81.1,102.3z M114.2,185.5c-7.4-0.3-15.4-0.6-22.4-0.9c-0.3-1.6-0.7-6.3-1.3-10.1l6-0.4l0.3,2.8  c0,0.4,0.1,1.7,0.1,1.7l0,0l0,0.1l18.4-1.7C114.7,180.4,114.3,184.5,114.2,185.5L114.2,185.5z M96.7,140.7c2.7,1.4,5.2,2.4,9.6,5.6  c4.4,3.1,5.6,4.3,5.6,4.3c1.8,10.6-3.6,17.2-8.8,20.5c-0.2-0.2-0.3-0.4-0.4-0.6c-0.1-0.1-1.3-2.3-3.4-5.1c0,0,0,0,0-0.1l-0.9-9.2  L96.7,140.7L96.7,140.7z M77.9,170.9l-2.1-16.7c2.9,0.7,7.7,2.9,9.4,3.9c0.4,0.2,0.7,0.5,1.1,0.7c1.1,0.8,2.2,1.6,3.2,2.5  c0.5,0.5,0.9,0.9,1.4,1.4c1.8,1.8,3.5,3.7,5,5.8c0.4,0.5,0.7,0.9,1,1.3L77.9,170.9z M155.3,57.1c0-0.4,0-0.8,0-1.2  c0-2-0.2-4.1-0.4-6c32.2-12.8,30.7-19.1,30.2-21.2c-0.2-1.1-0.9-2.6-2.9-3.7c-5.3-3.2-20-2.7-37.9-0.1c-9.6-12-24.7-19.8-41.7-19.8  c-15.6,0-29.6,6.6-39.3,17c-31.8-8-36.3-5.2-38.1-1.6c-0.5,1.1-1,2.8-0.1,5c2.1,5.4,12.2,12.7,25.9,20.3c-0.2,1-0.4,2-0.5,3.1  c-2.9,1.1-5.7,2.2-8.4,3.3c-22.2,9.3-24.3,14.5-23.4,18.3c0.4,1.9,1.6,6.7,17.5,6.7c4.6,0,10.5-0.4,18-1.4c0.1,0.3,0.3,0.6,0.4,0.9  L76,149.5c-3.2-1.2-5.5-1.7-5.5-1.7l3.2,27.7l0.2,0l0,0.1l10.2-0.6l2.4,9.5c-1.7-0.1-0.5-0.1-1.2-0.2c-0.3,0-1.3-0.7-1.7-1  c-1.1-0.8-1.2-1.6-2.6-1.6l-10.2-0.5c0,0-0.1,1.4-0.1,1.8c-0.2,5.3,2.2,15.4,8.8,16.2c0.6,0.1,1.3,0.1,2.2,0.2c2.2,5.9,3.9,6,4.7,6  c0.2,0,0.4,0,0.6,0c4.1-0.1,13.4-1.9,23.1-3.8c2.8-0.6,15-2.5,17.3-4c3.2-2,5.2-7.9,5.7-8.4c1.2-0.7,10.6-4,11.4-4.3  c1-0.4,1.3-0.5,1.1-1c-0.3-0.8-0.6-0.5-1.8-0.2c-0.3,0.1-10.5,2.1-11.5,2.4c-0.3,0-0.4,0-0.5,0c-0.1,0-0.2,0-1.1,0  c-1.4-0.1-8.2-0.1-11.6-0.3l2.6-9.3l16.8-1.5l-0.1-0.1l0.3,0c0,0-0.9-1.7-1.1-2.2c-0.1-0.3-2.3-4.9-6.7-10.6c0,0-1.5-1.8-3.5-4  l19.6-66.5c-0.1,0-0.2,0-0.3-0.1c-1.2-0.3-2.5-0.6-3.8-0.9l-18.9,64c-0.5-0.6-1.1-1.1-1.6-1.6l6.7-52.8c4.7-2.6,9-5.9,12.6-9.9  c-3.7-1-7.3-2-11-3.1v0c-1.3-0.4-2.7-0.8-4.1-1.3v0c-5.3-1.7-10.7-3.5-16-5.3c-5.4,6.1-12.6,9.8-20.6,9.8c-3.8,0-7.5-0.9-10.9-2.5  l-2.7-20.8c-1.5-0.6-3-1.3-4.5-1.9l2.6,20c-7-5-12.2-13.3-14.2-23.2c-3.5,1.1-6.7,2.2-9.5,3.2c0.3,1.4,0.6,2.8,1,4.1  c-16.8,2.1-24,0.8-26-0.2c2.6-3.3,15.6-9.9,36.8-17.1c3.9,1.9,7.8,3.8,11.7,5.5c-0.1,0-0.1,0-0.2,0.1c0.4,0.2,0.8,0.3,1.2,0.5l0-0.1  C82.4,61,89.7,64.1,97,67c6.4,2.6,53,20.7,75.2,20.7c5.6,0,9.6-1.1,11.1-4C184.6,81.1,187.9,74.6,155.3,57.1"/></symbol>
    <symbol id="pepsi" viewBox="0 0 1991 623.8" style="enable-background:new 0 0 1991 623.8"
        xml:space="preserve" xmlns="http://www.w3.org/2000/svg"><g><path d="M311.9,0C139.6,0,0,139.6,0,311.9c0,172.2,139.7,311.9,311.9,311.9s311.9-139.7,311.9-311.9   C623.8,139.6,484.1,0,311.9,0z M18.7,311.9C18.7,150,150,18.7,311.9,18.7c65.9,0,126.8,21.8,175.8,58.6   C428.8,273.8,273.1,428.5,75.9,485.9C40,437.2,18.7,377.1,18.7,311.9z M311.9,605.1c-90.3,0-171.1-40.9-224.9-105.2   c178.1-56.1,307.1-56.2,395.6-121.5C533.5,340.9,567,281.1,567,213c0-21.1-3.3-41.4-9.2-60.6c29.9,46,47.3,100.7,47.3,159.5   C605.1,473.8,473.8,605.1,311.9,605.1z"/><g><g><path d="M1319.1,307.1v-0.6c-0.2-2.6-0.7-6.8-1.2-11.4c-1.1-8.3-2.9-16.5-5.4-24.4c-18.9-59.6-69.5-98.1-129-98.1     c-5.9,0-12.1,0.4-18.1,1.2c-76.3,9.8-128.1,78.8-117.9,157.2c9.2,70.9,66.3,119.5,135.8,119.5c5.9,0,12-0.4,18.1-1.1     c37.1-4.7,69.6-20.2,94-50.3c1.4-1.8,2.1-3.9,1.8-5.9c-0.2-1.7-1.2-3.4-3.1-4.7c-4.1-2.9-18.7-10-26.6-13.8     c-2.4-1.2-4.2-2.1-5.3-2.6c-2.4-1.2-4.1-1.8-5.7-1.8c-1.9,0-3.7,1-5.5,3.1c-15.7,18.3-35.6,27.9-55.9,30.5     c-4,0.5-7.9,0.8-11.7,0.8c-37,0-74.4-24.8-85.2-58.8l-0.3-0.9l0.8-0.4c1.9-1,19.2-9,44.9-9c3.2,0,6.4,0.1,9.6,0.4     c7.4,0.5,14.8,1.5,22.6,2.5c14.4,1.9,29.4,3.9,46.8,3.9c10.8,0,21.3-0.8,32.1-2.3c42.4-8.1,59.2-20,59.3-20.2     C1319.7,316.1,1319.5,312.9,1319.1,307.1 M1271.2,289.8c-7,2.3-16.6,4.2-28.5,5.7c-5.7,0.8-11.9,1.1-19.3,1.1     c-12.4,0-25.8-1-38.8-2h-0.5c-12-0.9-23.4-1.8-34.3-1.8c-7.8,0-15,0.5-21.8,1.3c-20.4,2.6-36.5,9-36.5,9l0.2-1.7     c4-40.8,38.3-75.8,79.9-81.3c3.8-0.5,7.8-0.7,11.7-0.7c39.2,0,77.2,29.7,88.5,69.1l0.2,1L1271.2,289.8z"/><path d="M1983.3,188.3c0-3.6-2.9-6.4-6.4-6.4h-35.1c-3.5,0-6.4,2.9-6.4,6.4v249.3c0,3.5,2.9,6.4,6.4,6.4h35.1     c3.5,0,6.4-2.9,6.4-6.4V188.3z"/><path d="M1959.3,92.9c-17.4,0-31.7,14.2-31.7,31.7c0,17.4,14.3,31.6,31.7,31.6c17.5,0,31.7-14.2,31.7-31.6     S1976.8,92.9,1959.3,92.9"/><path d="M1493.3,450.7c2.2,0.1,4.5,0.2,6.7,0.2c36,0,69.6-13.9,94.5-39c25.2-25.5,39.1-60.6,39.1-98.7     c0-78.8-60.7-140.5-138.2-140.5c-63.1,0-116.3,41.5-132.6,103.3c-2.8,10.5-5.6,37.2-5.6,63.8v195.7c0,3.6,2.8,6.5,6.4,6.5     l34.9-0.1c3.6,0,6.5-2.9,6.5-6.4V412.2l1.8,1.8C1423.8,430.4,1455.5,448.9,1493.3,450.7 M1494.8,220c49.7,0,88.7,40.9,88.7,93.1     c0,52.5-37,92.2-86,92.2c-24.8,0-47.7-8.9-64.5-24.9c-17.3-16.5-26.9-39.9-26.9-65.6C1406.1,262.5,1445.9,220,1494.8,220"/><path d="M867.9,450.7c2.2,0.1,4.5,0.2,6.7,0.2c36.1,0,69.6-13.9,94.5-39c25.2-25.5,39.1-60.6,39.1-98.7     c0-78.8-60.8-140.5-138.2-140.5c-63.1,0-116.4,41.5-132.6,103.3c-2.8,10.5-5.6,37.2-5.6,63.8v195.7c0,3.6,2.9,6.5,6.4,6.5     l34.9-0.1c3.6,0,6.5-2.9,6.5-6.4L779.4,412l1.8,1.8C798.3,430.4,830,448.9,867.9,450.7 M869.4,220c49.7,0,88.7,40.9,88.7,93.1     c0,52.5-36.9,92.2-86,92.2c-24.8,0-47.7-8.9-64.5-24.9c-17.3-16.5-26.9-39.9-26.9-65.6C780.6,262.5,820.5,220,869.4,220"/><path d="M1667.1,407c30.3,27.7,63.4,43.5,106.4,43.5h1.3c74.2-0.5,107.4-41,107.4-80.9c0-55.2-52.2-70.3-68.1-73.6     c-5.1-1-10.5-2-15.9-3.1c-12.9-2.5-26.3-5.1-38.5-8.4c-8.5-2.3-36.4-11.6-36.4-32.4c0-22.9,25.4-35.2,49.3-35.2     c20.1,0,36.8,3.4,58.2,20.1c1.6,1.3,4,2.8,6.9,2.8c2.1,0,4.2-0.8,6.3-2.3c5.9-4.4,16.8-13.5,24-20.7c1.7-1.7,2.5-3.6,2.4-5.6     c-0.2-3-2.4-5.5-3.6-6.5c-28.6-22.7-56.2-32-95-32.1h-0.2c-55.6,0-97.6,35.7-97.6,83c0,37.5,30.8,64.2,86.8,75.2l35,6.7     c23,4.2,36,16.4,35.5,33.5c-0.4,16.7-20.9,34-54.5,34c-27.5,0-51.6-10.7-71.9-29.1l-0.3-0.3c-1.4-1.3-3.1-2.9-5.4-2.9     c-1.6,0-3.3,0.8-5.2,2.2c-2.1,1.7-25.5,20.2-28,22.8c-1.1,1.2-1.7,2.5-1.6,3.9C1664.4,403.8,1665.8,405.8,1667.1,407"/></g><path d="M867.9,450.7c2.2,0.1,4.5,0.2,6.7,0.2c36.1,0,69.6-13.9,94.5-39c25.2-25.5,39.1-60.6,39.1-98.7    c0-78.8-60.8-140.5-138.2-140.5c-63.1,0-116.4,41.5-132.6,103.3c-2.8,10.5-5.6,37.2-5.6,63.8v195.7c0,3.6,2.9,6.5,6.4,6.5    l34.9-0.1c3.6,0,6.5-2.9,6.5-6.4L779.4,412l1.8,1.8C798.3,430.4,830,448.9,867.9,450.7 M869.4,220c49.7,0,88.7,40.9,88.7,93.1    c0,52.5-36.9,92.2-86,92.2c-24.8,0-47.7-8.9-64.5-24.9c-17.3-16.5-26.9-39.9-26.9-65.6C780.6,262.5,820.5,220,869.4,220"/></g><sodipodi:namedview bordercolor="#666666" borderopacity="1" gridtolerance="10" guidetolerance="10" id="lnamedview55" xmlns:inkscape="http://www.inkscape.org/namespaces/inkscape" inkscape:current-layer="g30" inkscape:cx="142.2" inkscape:cy="43" inkscape:pagecheckerboard="true" inkscape:pageopacity="0" inkscape:pageshadow="2" inkscape:window-height="900" inkscape:window-maximized="0" inkscape:window-width="1440" inkscape:window-x="0" inkscape:window-y="0" inkscape:zoom="2.7722365" objecttolerance="10" pagecolor="#ffffff" showgrid="false" xmlns:sodipodi="http://sodipodi.sourceforge.net/DTD/sodipodi-0.dtd"/><g id="lg42"/><g id="lg44"/><g id="lg46"/><g id="lg48"/><g id="lg50"/><g id="lg52"/></g></symbol>
    <symbol id="pez" viewBox="0 0 2500 749.1" style="enable-background:new 0 0 2500 749.1"
        xml:space="preserve" xmlns="http://www.w3.org/2000/svg"><g><path d="M2274.3,480l-22.1-25.9l-83.4-1l103.6-83.4V31.2h-543.8l-113.1,72.9l-23,24l0,0l1.9,140l21.1,20.1l90.1,4.8   l-97.8,67.1l-11.5,16.3l2,141.9l8.6,19.2l-8.6,14.4l2.9,149.6l11.5,17.3l89.1-1l11.5-7.7l13.4,10.6l83.4-2.9l17.3-8.6l15.3,8.6   l87.3-1.9l15.3-10.5l12.5,8.6l82.5,0.9l16.3-10.5l18.2,10.5l78.6-0.9l113.2-84.4l9.6-22L2274.3,480z M1708.4,699.7   c-2.9,6.7-7.7,10.5-14.4,11.5h-75.7c-5.7-0.9-9.5-4.8-10.5-13.4V553.9c1.9-5.7,6.7-8.6,13.4-8.6h76.7c4.8,0,8.6,2.9,9.6,6.7   L1708.4,699.7L1708.4,699.7z M1708.4,521.3c-2.9,6.7-7.7,10.6-14.4,11.5h-75.7c-5.7-0.9-9.5-4.8-10.5-12.5V375.5   c1.9-5.8,6.7-8.6,13.4-8.6h76.7c4.8,0,8.6,2.9,9.6,7.7L1708.4,521.3L1708.4,521.3z M1708.4,268.1c-2.9,6.7-7.7,10.5-14.4,11.5   h-75.7c-5.7-1-9.5-5.8-10.5-13.4V122.3c1.9-6.7,6.7-9.6,13.4-8.7h76.7c4.8,0,8.6,1.9,9.6,6.7L1708.4,268.1L1708.4,268.1z    M1719,357.3c2.9-6.7,7.7-9.6,13.4-9.6h77.7c4.8,1,7.7,2.9,8.6,7.7l1,147.7l0,0c-1.9,6.7-6.7,10.5-14.4,11.5h-74.8   c-5.8-1.9-9.6-5.7-11.5-13.4V357.3z M1820.6,699.7c-1.9,6.7-6.7,10.5-14.4,11.5h-77.7c-5.8-0.9-9.6-4.8-11.5-13.4V553.9   c2.9-5.7,7.7-8.6,13.4-8.6h79.6c5.8,0,8.6,2.9,9.6,6.7L1820.6,699.7L1820.6,699.7z M1823.5,267.1c-1.9,6.7-6.7,10.5-14.4,11.5   h-75.8c-4.8-0.9-8.6-4.8-10.5-13.4V122.3c2.9-6.7,7.7-9.6,13.4-8.7h77.7c4.8,0,7.7,1.9,8.7,6.7L1823.5,267.1L1823.5,267.1z    M1832.1,122.3c2.9-6.7,7.7-9.6,14.4-8.7h76.8c4.8,0,8.6,1.9,9.6,6.7l1,146.8l0,0c-2.9,6.7-7.7,10.5-14.4,11.5h-75.8   c-5.7-0.9-9.6-4.8-11.5-13.4V122.3z M1933.8,482.9L1933.8,482.9c-1.9,6.7-6.7,10.6-14.4,11.5h-74.8c-5.8-0.9-9.6-4.8-11.5-13.4   V337.1c2.9-6.7,7.7-9.6,13.4-8.6h77.7c4.8,0,7.7,1.9,8.6,6.7L1933.8,482.9z M1922.3,711.2h-77.7c-5.8-0.9-9.6-4.8-11.5-13.4V552.9   c2.9-6.7,7.7-9.6,14.4-9.6h79.6c4.8,1,8.6,2.9,9.6,7.7l0.9,148.7C1934.8,706.4,1930,710.2,1922.3,711.2z M1942.5,122.3   c2.8-6.7,6.7-9.6,13.4-8.7h76.7c5.7,0,8.6,1.9,9.6,6.7l1,142.9h0c-1.9,6.7-6.7,10.5-14.4,11.5H1953c-4.8-1-9.6-4.8-10.5-12.5V122.3   z M1944.3,465.7V321.8c2.9-6.7,7.7-9.6,14.4-9.6h76.8c4.8,1,7.7,2.9,9.6,7.7v147.7h0c0,0,0,0,0,0v0h0c-1.9,6.7-6.7,10.6-14.4,11.5   h-74.8C1950.1,477.2,1946.3,473.3,1944.3,465.7z M2050.8,692.9c-1.9,6.7-6.7,10.6-14.4,11.5h-76.7c-4.8-1-9.6-4.8-10.6-13.4V549.1   c2.9-5.7,6.7-8.6,13.4-8.6h78.6c4.8,0,7.7,2.9,8.7,6.7L2050.8,692.9L2050.8,692.9z M2058.5,122.3c2.9-6.7,7.7-9.6,14.4-8.7h76.7   c4.8,0,7.7,1.9,9.6,6.7l1,142.9c-2.9,6.7-7.7,10.5-14.4,11.5H2070c-5.8-1-9.6-4.8-11.5-12.5V122.3z M2058.5,297.8   c2.9-6.7,7.7-9.6,14.4-8.7h76.7c4.8,0,7.7,1.9,9.6,6.7l1,147.7c-2.9,6.7-7.7,10.6-14.4,11.5H2070c-5.8-1-9.6-5.8-11.5-13.4V297.8z    M2163,694.9c-1.9,6.7-6.7,10.6-14.4,11.5h-76.7c-4.8-1.9-9.6-5.7-10.6-13.4V551c2.9-6.7,6.7-9.6,13.4-9.6h78.6   c4.8,0.9,7.7,2.9,8.6,7.7L2163,694.9L2163,694.9z"/><path d="M1373.7,453.2l35.5-28.8l-3.8-131.4l113.1-89.2l-0.9-151.5l-27.8-22.1h-486.2l-116.1,83.4v0l-13.4,18.2v52.7   l9.6,15.3l-9.6,10.6v64.2l12.5,14.4l-13.4,13.4l1,59.5l8.7,11.5l-7.7,12.5v60.4l9.6,16.3l-13.4,10.6v60.4l10.5,12.5l-10.5,11.5   l1.9,60.5l8.6,15.3L870.2,646l2.9,62.3l16.3,15.3v-1l210-1l10.5-10.6l11.5,10.6h80.6l7.7-10.6l12.4,10.6h78.7l8.6-8.6l10.6,8.6   h81.5l109.3-80.6l7.7-13.4V466.6l-19.2-13.4H1373.7z M1100.4,707.3c0,3.8-3.8,6.7-9.6,6.7L894.2,715c-9.6-1.9-13.4-4.8-14.4-10.5   v-55.6c1.9-3.9,5.7-7.7,16.3-8.6h192.7c7.7,1.9,11.5,5.8,11.5,10.6V707.3z M1100.4,618.1c0,3.9-3.8,6.7-9.6,6.7l-196.6,1v0   c-9.6-1.9-13.4-4.8-14.4-10.6v-55.6c1.9-3.9,5.7-6.7,16.3-8.6h192.7c7.7,1.9,11.5,5.7,11.5,10.6V618.1z M1100.4,534.7   c0,3.8-3.8,6.7-9.6,7.7H894.2v0c-9.6-0.9-13.4-4.8-14.4-10.5v-55.7c1.9-3.8,5.7-6.7,16.3-7.7h192.7c7.7,1.9,11.5,4.8,11.5,9.6   V534.7z M1100.4,448.4c0,2.9-3.8,5.8-9.6,6.7H894.2v0c-9.6-1-13.4-4.8-14.4-10.6v-55.6c1.9-3.9,5.7-6.7,16.3-7.7h192.7   c7.7,1.9,11.5,4.8,11.5,9.6V448.4z M1100.4,363c0,3.9-3.8,5.8-9.6,6.7H894.2v0c-9.6-1-13.4-4.8-14.4-10.5v-55.6   c1.9-3.8,5.7-6.7,16.3-7.7h192.7c7.7,1.9,11.5,4.8,11.5,9.6V363z M1100.4,273.8c0,3.9-3.8,5.8-9.6,6.7l-196.6,1v0   c-9.6-1.9-13.4-5.8-14.4-10.6v-53.7c1.9-3.8,5.7-6.7,16.3-8.6h192.7c7.7,1.9,11.5,5.7,11.5,10.5V273.8z M1100.4,186.6   c0,3.8-3.8,6.7-9.6,7.7H894.2c-9.6-1-13.4-4.8-14.4-10.6v-55.6c1.9-3.8,5.7-6.7,16.3-7.7h192.7c7.7,1.9,11.5,4.8,11.5,9.6V186.6z    M1113.8,360.1c2.9-5.7,6.7-8.6,12.5-8.6h66.2c4.8,1,7.7,2.9,8.6,6.7v135.2h0c-1,6.7-5.7,9.6-12.5,10.6h-65.2   c-4.8-1-7.7-4.8-9.6-12.5V360.1z M1204,699.7L1204,699.7c-1,6.7-5.8,10.5-12.5,11.5h-65.2c-4.8-0.9-7.7-4.8-9.6-13.4V553.9   c2.9-5.7,6.7-8.6,12.5-8.6h66.2c4.8,0,7.7,2.9,8.6,6.7V699.7z M1204,273.8L1204,273.8c-1,6.7-5.8,10.6-12.5,11.5h-65.2   c-4.8-1-7.7-4.8-9.6-12.5V128.1c2.9-5.8,6.7-8.6,12.5-8.6h66.2c4.8,0,7.7,2.9,8.6,6.7V273.8z M1212.6,128.1   c2.9-5.8,6.7-8.6,12.4-8.6h66.2c4.8,0,7.7,2.9,8.6,6.7l1,147.7c-1.9,6.7-6.7,10.6-12.5,11.5h-66.2c-4.8-1-7.7-4.8-9.6-12.5V128.1z    M1303.7,699.7c-1.9,6.7-6.7,10.5-12.5,11.5h-66.2c-4.7-0.9-7.7-4.8-8.6-13.4V553.9c1.9-5.7,5.7-8.6,11.5-8.6h66.2   c4.8,0,7.7,2.9,8.6,6.7L1303.7,699.7L1303.7,699.7z M1292.2,504H1226c-3.9-1-7.7-4.8-8.7-12.5V360.1c1.9-5.7,5.7-8.6,11.5-8.6h66.2   c4.8,1,7.7,2.9,8.6,6.7l1,135.2C1302.8,500.2,1298,503.1,1292.2,504z M1312.4,128.1c2.9-5.8,6.7-8.6,12.5-8.6h69.1   c4.8,0,7.7,2.9,8.6,6.7l1,147.7h0c-1.9,6.7-6.7,10.6-13.4,11.5h-68.1c-4.8-1-7.7-4.8-9.6-12.5V128.1z M1403.5,699.7   c-1.9,6.7-6.7,10.5-13.4,11.5h-68.1c-4.8-0.9-8.6-4.8-9.6-13.4V553.9c1.9-5.7,5.7-8.6,11.5-8.6h70c4.8,0,7.7,2.9,8.6,6.7   L1403.5,699.7L1403.5,699.7z"/><path d="M835.7,306.4l-70-39.3l65.2-38.4c3.8-6.7,4.8-14.4,2.9-23l-44.1-68.1c-5.8-1.9-10.5-2.9-17.3-1.9l-51.8,24   l26.8-58.5c2.9-6.4,2.9-13.8,0-20.2l-91.1-37.4l-49.9,28.8c0-11.5-11.5-24.9-19.2-35.5H181.6l-25.9,10.6L54,115.6   c-9.6,5.7-14.4,12.5-17.3,19.2v145.8v0c3.9,9.6,8.7,16.3,15.4,18.2l69.1,1c5.7,0,11.5-1.9,17.3-4.8c-4.8,4.8-7.7,10.5-8.7,16.3   v58.5c1,6.7,4.8,10.6,10.6,11.5c-4.8,1-7.7,3.8-9.6,7.7v63.3c0.9,6.7,4.8,11.5,11.5,15.3c-4.8-1-8.6,1-12.5,4.8v60.4   c1,6.7,4.8,11.5,9.6,13.4c-5.8,3.8-8.6,8.6-9.6,14.4V621c1.9,6.7,7.7,12.5,15.4,15.4c-7.7,6.7-12.5,13.4-12.5,21.1v45.1   c3.8,12.5,12.5,21.1,26.8,22.1h198.6l120.8-94l-2.9-45.1l44.1-29.7l21.1,19.2c7.7,2.9,15.4,2.9,22,0l60.5-26.8l127.6-101.7   l-5.8-17.2l51.8-28.8L835.7,306.4z M130.8,277.7c-1.9,6.7-5.8,9.6-10.6,9.6H59.8c-3.8-1-5.8-2.9-6.7-7.7l-1-144.8   c1.9-6.7,5.8-10.6,11.5-11.5h58.5c4.8,1,7.7,4.8,8.7,13.4V277.7z M268.9,123.3h77.7c5.8,1,10.6,4.8,11.5,13.4v141   c-2.9,6.7-7.7,9.6-13.4,9.6H265c-5.7-1-8.6-2.9-9.6-7.7l-1-144.8C256.4,128.1,261.2,124.2,268.9,123.3z M155.7,123.3h74.8   c5.8,1,9.6,4.8,11.5,13.4v141c-2.9,6.7-7.7,9.6-13.4,9.6h-77.7c-4.8-1-7.7-2.9-8.7-7.7l-1-144.8C143.2,128.1,148,124.2,155.7,123.3   z M361.9,709.2c0,3.9-3.8,5.7-9.6,6.7l-196.6,1v0c-8.6-1.9-14.4-5.8-15.3-10.5v-55.6c1.9-3.8,6.7-6.7,18.2-7.7h191.8   c7.7,1.9,11.5,4.8,11.5,9.6V709.2z M361.9,624.9c0,3.8-3.8,6.7-9.6,6.7l-196.6,0.9c-8.6-1.9-14.4-4.8-15.3-10.5v-53.7   c1.9-3.9,6.7-6.7,18.2-7.7h191.8c7.7,1.9,11.5,4.8,11.5,9.6V624.9z M361.9,535.7c0,3.8-3.8,6.7-9.6,6.7l-196.6,1v0   c-8.6-1.9-14.4-4.8-15.3-10.6v-53.7c1.9-3.9,6.7-6.7,18.2-7.7h191.8c7.7,1.9,11.5,4.8,11.5,9.6V535.7z M361.9,450.3   c0,3.9-3.8,5.8-9.6,6.7l-196.6,1v0c-8.6-1.9-14.4-5.7-15.3-10.6v-53.7c1.9-3.8,6.7-6.7,18.2-7.7h191.8c7.7,1.9,11.5,4.8,11.5,9.6   V450.3z M361.9,367.8c0,3.8-3.8,5.8-9.6,6.7l-196.6,1c-8.6-1.9-14.4-4.8-15.3-10.6v-53.7c1.9-3.9,6.7-6.7,18.2-7.7h191.8   c7.7,1.9,11.5,4.8,11.5,9.6V367.8z M647.7,355.4l69.1,34.5c3.9,4.8,4.8,10.5,1.9,17.3l-40.3,63.3c-2.9,5.7-7.7,7.7-13.4,4.8   l-66.2-33.6c-2.9,2.9-3.8,5.7-3.8,9.6l35.5,63.3c1.9,5.7,1,9.6-2.9,12.5l-82.5,39.3c-4.8,0-8.7-2.9-11.5-7.7l-51.8-106.4   c-3.8-1-5.7,0-6.7,2.9v114.1c-2.9,7.7-8.6,11.5-19.2,12.5l-75.7,1c-5.8-1.9-8.7-4.8-9.6-11.5V419.6h109.3   c61.4-18.2,71-108.4,0-131.4l-106.5-0.9l-2.9-8.7v-141c1.9-7.7,7.7-12.5,16.3-15.4h72.9c7.7,3.8,12.5,7.7,15.4,15.4v118.9   c0.9,1,2.9,1,4.8,0l58.5-116.1c6.7-4.8,13.4-6.7,22.1-4.8l74.8,36.4c1.9,4.8,0,9.6,0,14.4l-37.4,66.2l2.9,1.9l62.4-28.8   c5.7-3.8,10.6-1.9,11.5,0l47,72c1.9,3.8-1,6.7-2.9,8.6l-73.8,41.2C644.9,351.5,645.8,353.4,647.7,355.4z"/><path d="M2386.4,57.7h22.1c5.2,0,9,1.2,11.4,3.6c2.4,2.4,3.7,5.7,3.6,9.1c0,2.5-0.6,4.9-1.9,7   c-1.2,2.1-3.2,3.8-5.5,4.7c-2.4,1-5.7,1.5-9.9,1.5h-19.9V57.7z M2386.4,128.1V92.9h10.7c2.4,0,4.1,0.1,5.2,0.4   c1.4,0.4,2.8,1.1,4.2,2.1c1.4,1,2.9,2.8,4.7,5.3c1.8,2.5,4,6.2,6.7,10.9l9.3,16.5h11.6l-12.1-21.6c-2.1-3.8-4.7-7.4-7.7-10.5   c-1.3-1.3-3.1-2.6-5.6-3.9c6.7-1.1,11.6-3.5,14.9-7.4c3.2-3.8,4.8-8.6,4.8-14.2c0-4.4-1-8.3-2.9-11.9c-1.7-3.3-4.4-6-7.8-7.5   c-3.2-1.4-8-2.1-14.2-2.1h-31V128L2386.4,128.1L2386.4,128.1z"/><path d="M2403.8,36c28.8,0,52.7,24,52.7,52.8c0.1,29-23.4,52.6-52.4,52.7c-0.1,0-0.2,0-0.3,0v7.7   c32.6,0,59.5-26.8,59.5-59.4c0-33.6-26.9-60.4-59.5-60.4V36L2403.8,36z M2403.8,141.5c-29,0.1-52.7-23.4-52.8-52.4   c0-0.1,0-0.2,0-0.3c0-28.8,24-52.8,52.8-52.8v-6.7c-33.6,0-60.4,26.8-60.4,60.4c0,32.6,26.8,59.4,60.4,59.4V141.5L2403.8,141.5z"/></g></symbol>
    <symbol id="qualcomm" viewBox="0 0 783.6 144" style="enable-background:new 0 0 783.6 144"
        xml:space="preserve" xmlns="http://www.w3.org/2000/svg"><path d="M211.5,41.3c2.1,0,3.9,1.7,3.9,3.9v74.5c0,2.1-1.9,3.8-3.9,3.8h-10.1c-1.9,0-3.8-1.5-3.8-3.6V113  c-5.1,7.5-13.9,12.7-26.7,12.7c-21.4,0-34.6-14.2-34.6-35.3V45c0-2.1,1.9-3.8,3.9-3.8h10.1c2.1,0,3.8,1.7,3.8,3.8v42.5  c0,13.7,7.2,22.8,21.4,22.8c13.9,0,22.1-9.4,22.1-22.6V45c0-2.1,1.9-3.8,3.8-3.8L211.5,41.3 M62.5,0C27.9,0,0,26.9,0,62.8  c0,36,27.9,62.8,62.5,62.8c5.9,0,11.6-0.8,17-2.3l6.8,17.5c0.7,1.9,2.1,3.1,4.6,3.1h10.8c2.6,0,4.5-1.7,3.3-5L96.2,116  c17.3-10.9,28.8-30.2,28.8-53.3C125,26.9,97.1,0,62.5,0 M89.7,99.3l-7.9-20.5c-0.7-1.7-2.1-3.3-5.1-3.3H66.4c-2.6,0-4.6,1.7-3.4,5  l10.4,26.9c-3.4,0.9-7.1,1.3-10.9,1.3c-25.3,0-43.3-19.9-43.3-45.9s18-45.9,43.3-45.9s43.3,19.9,43.3,45.9  C105.8,78,99.7,91,89.7,99.3 M783.3,119.3c0.9,2.1-0.2,4.1-2.7,4.1h-11.3c-2.1,0-3.8-1-4.5-3.1l-20.9-56.2l-21.2,56.2  c-0.9,2.2-2.4,3.1-4.5,3.1h-10.1c-2.1,0-3.6-0.9-4.5-3.1l-21.4-56.5l-21.1,56.5c-0.9,2.1-2.4,3.1-4.5,3.1H646c-2.1,0-3.6-1-4.5-3.1  l-20.9-56.5L599,120.3c-0.9,2.2-2.4,3.1-4.5,3.1h-10.1c-2.1,0-3.6-0.9-4.5-3.1l-21.1-56.5l-21.1,56.5c-0.7,2.1-2.4,3.1-4.5,3.1h-11  c-2.6,0-3.6-2.1-2.7-4.1l28.6-74.8c0.9-2.2,2.4-3.3,4.5-3.3h12.3c2.1,0,3.6,1,4.5,3.3L590,99.1l20.4-54.6c0.9-2.2,2.4-3.3,4.5-3.3  H627c2.1,0,3.6,1,4.5,3.3l20.2,54.6l20.2-54.6c0.9-2.2,2.4-3.3,4.5-3.3h12.2c2.1,0,3.6,1,4.5,3.3l20.5,54.6l20-54.6  c0.9-2.2,2.4-3.3,4.5-3.3h12.3c2.1,0,3.6,1,4.5,3.3L783.3,119.3 M309.4,41.3h-10.1c-2.1,0-3.9,1.7-3.9,3.9V52  c-5.1-7.7-15.1-13.2-26.9-13.2c-22.3,0-41.4,17.6-41.4,43.3c0,26,19.2,43.5,41.3,43.5c12,0,21.7-5.5,27.1-13.2v7.2  c0,2.1,1.9,3.8,3.9,3.8h10.1c2.1,0,3.8-1.7,3.8-3.8V45.2C313.2,43,311.5,41.3,309.4,41.3 M270.4,109.2c-14.7,0-25.2-12-25.2-26.9  c0-15.1,10.4-26.7,25.2-26.7c14.6,0,25.2,11.6,25.2,26.7C295.5,97.3,284.9,109.2,270.4,109.2 M429.9,111.8c2.2,2.7,0.3,4.8-0.9,5.7  c-7,5.3-16.3,8.2-26.4,8.2c-25.5,0-42.5-18.7-42.5-43.3s17-43.5,42.5-43.5c10.1,0,19.3,2.9,26.4,8.2c1.2,0.9,2.9,2.7,0.9,5.7  l-4.8,6.7c-1.9,2.6-4.1,1.9-6,0.7c-4.5-2.7-9.8-5-15.9-5c-14.9,0-24.8,12-24.8,27.2s9.9,27.1,24.8,27.1c6.2,0,11.1-2.4,15.6-5  c1.9-1,3.9-1.9,6,0.9L429.9,111.8L429.9,111.8z M477.5,39c-24,0-43.1,18.8-43.1,43.3c0,24.7,19.2,43.3,43.1,43.3  c24,0,43.1-18.7,43.1-43.3C520.7,57.9,501.5,39,477.5,39 M477.5,109.1c-14.7,0-25.2-11.8-25.2-26.7c0-15.1,10.4-26.7,25.2-26.7  c14.7,0,25.2,11.6,25.2,26.7C502.7,97.3,492.3,109.1,477.5,109.1 M344.8,2.2c2.2,0,3.8,1.9,3.8,3.9v113.4c0,2.1-1.5,3.9-3.8,3.9  h-10.1c-2.1,0-3.9-1.9-3.9-3.9V6.2c0-2.1,1.9-3.9,3.9-3.9L344.8,2.2"/></symbol>
    <symbol id="snapchat" viewBox="0 0 614 579.2" style="enable-background:new 0 0 614 579.2"
        xml:space="preserve" xmlns="http://www.w3.org/2000/svg"><path d="M312.7,25.3c22.5,0,99.8,6,136.3,87.8c12,26.9,8.9,75.7,6.5,114.9c-0.4,6.2-0.8,12.2-1.1,18l-0.1,2.5l1.7,1.8  c0.7,0.7,6.9,7.3,20.8,7.8l0.2,0l0.2,0c9.2-0.3,19.5-3.2,30.7-8.5c1.7-0.8,3.9-1.2,6.2-1.2c2.7,0,5.5,0.5,7.8,1.5l0.4,0.1  c5.9,2.1,10,6,10.1,9.5c0,2-1.5,9.2-22.3,17.4c-2,0.8-4.7,1.7-7.8,2.6c-13.6,4.3-34.1,10.8-41,27.1c-3.9,9.2-2.8,20,3.2,32.1  c2.5,5.7,41.2,93.1,128.5,107.4c0,0.4-0.1,0.9-0.4,1.4c-1.5,3.5-10.9,15.5-69.3,24.5c-9.1,1.4-11.4,11.7-14,23.6  c-0.9,4.3-1.9,8.6-3.2,13c-0.4,1.3-0.5,1.4-1.9,1.4c-0.2,0-0.4,0-0.7,0c-2.6,0-6.5-0.5-11.1-1.4c-8.3-1.6-19.7-3.6-34.2-3.6  c-8.1,0-16.4,0.7-24.8,2.1c-17.9,3-32.4,13.3-47.9,24.2c-20.7,14.6-42.1,29.8-74.7,29.8c-1.4,0-2.8,0-4.2-0.1l-0.4,0l-0.4,0  c-0.8,0.1-1.6,0.1-2.4,0.1c-32.6,0-54-15.1-74.7-29.8c-15.4-10.9-30-21.2-47.9-24.2c-8.4-1.4-16.7-2.1-24.8-2.1  c-14.5,0-25.9,2.2-34.2,3.8c-4.6,0.9-8.5,1.7-11.1,1.7c-2.1,0-2.2-0.1-2.6-1.7c-1.3-4.5-2.3-8.9-3.2-13.1  c-2.6-11.9-4.8-22.2-14-23.7c-58.5-9-67.9-21.1-69.4-24.6c-0.2-0.5-0.3-1-0.4-1.4c87.2-14.4,126-101.7,128.4-107.4  c6-12.2,7.1-23,3.2-32.1c-6.9-16.3-27.4-22.8-41-27.1c-3.1-1-5.8-1.8-7.8-2.7c-17.6-7-23-14-22.2-18.2c0.9-4.9,9.4-9.9,16.8-9.9  c1.7,0,3.1,0.3,4.2,0.8c12,5.6,23,8.5,32.7,8.5c15.2,0,21.9-7.1,22.6-7.9l1.6-1.8l-0.1-2.5c-0.3-5.8-0.7-11.8-1.1-18  c-2.5-39.2-5.5-87.9,6.5-114.8c36.3-81.5,113.3-87.7,136.1-87.7c0.6,0,10.4-0.1,10.4-0.1C311.8,25.3,312.2,25.3,312.7,25.3   M312.7,11.2L312.7,11.2c-0.5,0-1,0-1.5,0c-3.7,0-9.8,0.1-10.3,0.1c-13.3,0-40,1.9-68.6,14.5c-16.4,7.2-31.1,17-43.7,29  c-15.1,14.3-27.4,32-36.5,52.5c-13.4,30.1-10.2,80.7-7.7,121.4l0,0.1c0.3,4.4,0.6,8.9,0.8,13.3c-2,0.9-5.2,1.9-9.9,1.9  c-7.6,0-16.6-2.4-26.7-7.2c-3-1.4-6.4-2.1-10.2-2.1c-6.1,0-12.4,1.8-18,5c-7,4.1-11.5,9.9-12.7,16.3c-0.8,4.2-0.8,12.6,8.5,21.1  c5.1,4.7,12.6,9,22.3,12.8c2.5,1,5.6,2,8.8,3c11.1,3.5,27.9,8.9,32.3,19.2c2.2,5.2,1.3,12.1-2.8,20.4c-0.1,0.2-0.2,0.4-0.3,0.7  c-1,2.4-10.6,24-30.2,46.9C95.3,393.1,83,404,70,412.4c-15.9,10.3-33.1,17-51.2,20C11.7,433.6,6.6,439.9,7,447  c0.1,2.1,0.6,4.1,1.4,6.1c0,0,0,0,0,0c2.9,6.7,9.5,12.4,20.3,17.4c13.2,6.1,32.9,11.3,58.7,15.3c1.3,2.5,2.6,8.7,3.6,12.9  c1,4.5,2,9.2,3.5,14.1c1.6,5.3,5.6,11.7,16.1,11.7c4,0,8.5-0.9,13.8-1.9c7.7-1.5,18.3-3.6,31.5-3.6c7.3,0,14.9,0.6,22.5,1.9  c14.7,2.4,27.4,11.4,42,21.8c21.5,15.2,45.7,32.3,82.9,32.3c1,0,2,0,3-0.1c1.2,0.1,2.7,0.1,4.4,0.1c37.1,0,61.4-17.2,82.8-32.3l0,0  c14.7-10.4,27.3-19.3,42-21.7c7.6-1.3,15.2-1.9,22.5-1.9c12.6,0,22.6,1.6,31.5,3.3c5.8,1.1,10.3,1.7,13.8,1.7l0.3,0h0.4  c7.6,0,13.3-4.2,15.4-11.5c1.4-4.8,2.4-9.4,3.4-14c0.9-4,2.3-10.4,3.6-12.9c25.7-4,45.5-9.2,58.7-15.3c10.8-5,17.4-10.7,20.3-17.4  c0.9-2,1.4-4.1,1.5-6.2c0.4-7.2-4.7-13.5-11.8-14.6c-80.2-13.2-116.3-95.6-117.8-99.1c-0.1-0.2-0.2-0.5-0.3-0.7  c-4.1-8.3-5-15.2-2.8-20.4c4.4-10.3,21.2-15.6,32.3-19.2c3.2-1,6.3-2,8.8-3c10.9-4.3,18.8-9,23.9-14.3c6.2-6.3,7.4-12.4,7.3-16.4  c-0.2-9.6-7.5-18.2-19.3-22.4c-4-1.6-8.5-2.5-13.1-2.5c-3.1,0-7.8,0.4-12.1,2.5c-9.4,4.4-17.8,6.8-25,7.1c-3.8-0.2-6.5-1-8.3-1.8  c0.2-3.8,0.5-7.6,0.7-11.6l0.1-1.7c2.6-40.7,5.8-91.4-7.6-121.5c-9.2-20.6-21.5-38.3-36.7-52.7c-12.7-12-27.5-21.8-43.9-29  C352.7,13.1,326,11.2,312.7,11.2"/></symbol>
    <symbol id="sony" viewBox="0 0 1280 225.3" style="enable-background:new 0 0 1280 225.3"
        xml:space="preserve" xmlns="http://www.w3.org/2000/svg"><g transform="translate(647.97 -300.06)"><path d="M325.6,312.6v25h24.4c10.7,0,17.7,6.7,21.7,11.1c3.2,3.6,73.6,83.4,75.3,85.5c1.7,2.1,1.7,2.1,1.7,3.5v39.6   c0,1.8-0.2,3.6-0.5,5.4c-1,2.3-3,4.1-5.4,4.8c-2.3,0.3-4.6,0.4-7,0.4l-24.5,0v25h137.3v-25h-25.8c-2.3,0-4.6-0.1-6.9-0.4   c-2.4-0.7-4.4-2.5-5.4-4.8c-0.4-1.8-0.5-3.6-0.6-5.4v-39.5c-0.2-1.3,0.2-2.6,0.9-3.7l76.2-86.9c7-7.8,10.6-9.5,19.8-9.5H632v-25   H518.9v25H536c2.6-0.2,4.9,1.9,5.1,4.5c0.1,1.1-0.3,2.3-1,3.2c-0.4,0.5-47.4,55.8-48,56.3s-1,0.4-1.4-0.2   c-0.4-0.6-46.9-56.1-46.9-56.1c-3.3-4-0.7-7.7,3.1-7.7h16.6v-25L325.6,312.6z"/><path d="M-11,312.6v25h21.9c15.8,0,16.9,8.8,16.9,16.5v117.2c0,7,0.4,16.6-9.7,16.6h-27v25h115.4v-25H78.3   c-11.2,0-11.8-5.1-11.9-16.1V371.5L225,513h40.3l-2.1-159.8c0.2-11.7,0.9-15.6,13-15.6h25.3v-25H183.7v25h25.9   c11.9,0,13.9,4.6,14,15.6l1.4,83.6L87.4,312.6L-11,312.6z"/><path d="M-530.8,300c-24.8,0-53,4.7-76.8,15.4c-22.2,9.9-40.3,25.9-40.3,52.3c0,13.8,5.2,27.2,14.7,37.3   c6.4,5.9,16.8,16,43.9,22c12.1,2.6,38,6.7,63.8,9.4c25.8,2.7,50.8,5.1,61,7.9c8.1,2.1,21.8,4.9,21.8,20.3s-14.4,20-16.9,21   c-2.5,1-19.8,8.9-50.9,8.9c-20.6-0.6-41-4.1-60.6-10.4c-11.6-4.1-23.8-9.6-35.1-23.5c-4.6-6.5-7.1-14.3-7.3-22.2h-28.2v78.8h31.3   v-10.7c0-2.5,2-4.5,4.4-4.5c0.8,0,1.6,0.2,2.3,0.6c14.7,6.4,30.1,11.4,45.8,14.8c16.4,3.4,27.1,5.9,47.5,5.9   c21.6,0.4,43-2.6,63.6-9c13.7-3.7,26.5-10.1,37.8-18.7c12.9-9.9,20.4-25.3,20.3-41.5c0.1-15.2-5.8-29.9-16.4-40.8   c-5.9-5.7-12.7-10.4-20.2-13.8c-8-3.6-16.3-6.5-24.9-8.7c-16.2-4-52.7-8.9-70.1-10.7c-18.3-1.9-50-4.5-62.7-8.4   c-3.8-1.2-11.7-4.9-11.7-14c0-6.5,3.6-12,10.7-16.4c11.2-7,33.9-11.4,57.6-11.4c22.9-0.3,45.6,4.2,66.7,13c5.7,2.5,11,5.7,15.9,9.5   c7.9,6.8,13.4,16,15.6,26.2h25.3V310H-431v8c0,2.6-2.6,5.9-7.7,3.2C-451.4,314.5-487.1,300.2-530.8,300L-530.8,300z"/><path d="M-191.9,300.1c-44.4,0-91.5,15.4-118.1,39.5c-20.5,18.7-32.2,45.2-32.1,72.9c-0.3,27.9,11.4,54.6,32.1,73.2   c28.7,25.8,71.7,39.6,118.1,39.6c46.5,0,90.4-13.7,118.4-39.6c20.1-19.1,31.6-45.5,31.7-73.2c0.3-27.7-11.2-54.2-31.7-72.9   C-103.6,312.4-142.9,300.1-191.9,300.1L-191.9,300.1z M-191.9,329.3c24.3,0,47.6,8.7,63.4,24.2c15.2,15,23.2,36.2,23.2,58.9   c0,23.8-7.2,43-23.2,58.9c-15.9,15.9-38.8,24.4-63.4,24.4c-24.4,0-47.7-8.7-63.5-24.4c-15.2-15.8-23.5-37-23-58.9   c0-22.6,7.9-43.8,23-58.9C-239.7,338-216.2,329.3-191.9,329.3L-191.9,329.3z"/></g></symbol>
    <symbol id="sxsw" viewBox="0 0 495.8 113.2" style="enable-background:new 0 0 495.8 113.2"
        xml:space="preserve" xmlns="http://www.w3.org/2000/svg"><g id="q_x23_000000ff"><path d="M20.1,5.5c7.3-4,15.8-5.2,24.1-4.8c4.7,0.2,9.3,1,13.7,2.6C63.7,5.4,69,8.9,72.7,13.8c3.8,4.8,6,10.7,6.9,16.7   c0.6,3.6,0.6,7.3,0.6,11c-8.1,0-16.1,0-24.2,0c0-3.8-0.1-7.6-1.5-11.2c-1-2.8-3-5.3-5.6-6.7c-2.5-1.4-5.4-1.9-8.3-1.9   c-2,0.1-4,0.3-5.8,1.1c-2,0.9-3.9,2.5-4.7,4.6c-1.2,3.1-1.2,6.8,0.7,9.7c1.6,2.3,4.3,3.7,6.9,4.6c5.8,1.9,11.5,3.8,17.2,5.8   c5.6,1.9,11.2,4.3,16,8c4.4,3.3,7.8,7.9,9.4,13.2c1.4,4.5,1.8,9.3,1.4,14c-0.3,3.3-0.8,6.5-2,9.6c-2,5.5-5.6,10.5-10.4,13.9   c-6,4.4-13.4,6.5-20.7,7.2H37.1c-3-0.4-6.1-0.8-9.1-1.7c-6.8-1.8-13.3-5.4-17.8-10.9c-3.4-4.2-5.6-9.2-6.7-14.4   c-0.5-2.1-0.7-4.2-0.9-6.4c-0.1-2.3,0-4.6-0.1-6.9c8.1,0,16.2,0,24.3,0c0,3.2,0,6.5,1,9.6c1,3.1,3,6,5.8,7.7c3.3,2,7.2,2.5,11,2.3   c2.8-0.2,5.7-0.9,7.8-2.7c2-1.7,2.9-4.3,3-6.9c0-2.4-0.6-4.9-2.2-6.6c-2.2-2.4-5.4-3.4-8.4-4.4c-4.3-1.4-8.5-2.7-12.8-4   c-2.4-0.8-4.7-1.5-7-2.4c-5.1-1.9-10-4.7-13.7-8.7c-2.8-2.9-4.8-6.5-6-10.3c-1.1-3.2-1.5-6.6-1.6-10c-0.3-6.4,0.9-13,4-18.7   C10.5,12.6,14.9,8.3,20.1,5.5z"/><path d="M197,1.1c5.7-0.7,11.5-0.6,17.2,0.4c4.4,0.8,8.6,2.2,12.5,4.4c5.7,3.2,10.3,8.2,13,14.2   c3.1,6.7,3.9,14.2,3.7,21.4c-8.1,0-16.1,0-24.2,0c0-3.5-0.1-7.2-1.2-10.6c-1-3-2.9-5.7-5.7-7.2c-3-1.7-6.5-2.2-9.9-2   c-2.9,0.2-5.9,1.2-7.8,3.5c-2.2,2.8-2.6,6.8-1.4,10.1c0.9,2.5,3.2,4.2,5.5,5.3c1.9,0.9,3.9,1.4,5.8,2.1c3.1,1,6.2,2.1,9.2,3.1   c3.4,1.1,6.8,2.2,10.1,3.6c5.8,2.4,11.4,5.8,15.3,10.7c2.3,2.9,4,6.3,4.9,9.9c0.8,3.1,1.1,6.3,1.1,9.5c0,4.4-0.7,8.8-2.3,13   c-2.1,5.6-6,10.6-11,14c-5.8,4-12.9,6-19.9,6.7h-11c-6.2-0.6-12.4-1.9-17.9-4.8c-6-3-10.9-8.1-13.7-14.2   c-3.2-6.6-3.8-14.1-3.7-21.4c8.1,0,16.2,0,24.4,0c-0.1,3.7,0.1,7.6,1.6,11.1c1.2,2.9,3.4,5.4,6.2,6.8c3.3,1.6,7.1,2,10.7,1.7   c2.7-0.2,5.5-1.1,7.5-3c1.9-1.9,2.7-4.7,2.6-7.3c-0.1-1.9-0.6-3.9-1.8-5.4c-1.8-2.2-4.4-3.4-7-4.2c-5.5-1.8-11-3.4-16.5-5.2   c-4.8-1.5-9.6-3.3-13.8-6.1c-5.3-3.5-9.4-8.7-11.2-14.8c-2.1-6.9-2.2-14.4-0.4-21.4c1.7-6.5,5.6-12.6,11-16.7   C184.2,4.2,190.6,2,197,1.1z"/><path d="M382.1,2.2c9.5-0.1,18.9,0,28.4,0c0,10.5,0,20.9,0,31.4c0,9.6-0.1,19.1,0.1,28.7c8.8-8.9,17.8-17.7,26.6-26.6   c11.2-11.2,22.4-22.4,33.6-33.6c7,7,14,14,21,21c-17.7,17.7-35.5,35.4-53.2,53.1c-2.4,2.4-4.8,4.9-7.3,7.2   c20.1,0.1,40.3,0,60.4,0.1c0,9.5,0,18.9,0,28.4c-36.6,0-73.1,0-109.7,0C382.1,75.3,382.2,38.8,382.1,2.2z"/><path d="M79.4,2.7c9.7,0,19.4,0,29.2,0c5,9.6,10,19.2,14.9,28.7c0.3,0.5,0.5,1.1,0.9,1.6c0.4-0.4,0.6-1,0.8-1.5   c5-9.6,10-19.3,15-28.9c9.3,0,18.7,0,28,0c-10,17.5-20.1,34.9-30,52.4c10.7,18.8,21.4,37.6,32.1,56.4c-9.7,0-19.4,0-29.2,0   c-1.2-2-2.2-4.1-3.4-6.1c-4.9-9-9.8-18-14.7-27c0,0-0.1,0-0.2,0c-5.9,11-11.8,22.1-17.7,33.1c-9.4,0-18.8,0-28.1,0   c10.7-18.5,21.4-37,32.1-55.6c-8.4-15-16.9-30.1-25.3-45.1C82.4,8.1,80.8,5.4,79.4,2.7z"/><path d="M246.3,2.7c9,0,18.1,0,27.1,0c3.8,23.3,7.6,46.6,11.4,69.9c0.2,0,0.5-0.1,0.7-0.1c3.4-23.3,6.9-46.5,10.3-69.8   c8.1,0,16.1,0,24.2,0c0.2,0.1,0.7-0.2,0.7,0.2c3.4,23.2,6.9,46.4,10.3,69.7c0.2-0.1,0.7,0.1,0.7-0.3c3.7-22.3,7.3-44.7,10.9-67   c0.2-0.9,0.2-1.8,0.5-2.6c8.4,0,16.9,0,25.3,0c-3.4,18.3-6.8,36.6-10.2,54.8c-3.4,18-6.7,35.9-10.1,53.9c-10.1,0-20.1,0-30.2,0   c-3.4-23.2-6.8-46.5-10.2-69.7c-0.2,0-0.5,0-0.6,0c-3.4,23.2-6.8,46.5-10.2,69.7c-10.1,0-20.1,0-30.2,0   C259.9,75.2,253.1,38.9,246.3,2.7z"/><path d="M361.3,100.4c2.4-0.6,5.1,0.3,6.4,2.4c1.7,2.6,0.9,6.5-1.8,8.1c-2.6,1.7-6.6,0.8-8.1-1.9   c-1.3-2.2-0.9-5.3,0.9-7.2C359.5,101.1,360.4,100.6,361.3,100.4 M361.7,101.3c-2.9,0.6-4.4,4.2-3.2,6.7c0.7,1.8,2.6,2.8,4.5,2.8   c1.5,0,3-0.9,3.8-2.3c1.1-1.8,0.9-4.4-0.6-6C365.1,101.4,363.3,100.9,361.7,101.3z"/><path d="M360.4,102.9c1.4,0.1,2.9-0.2,4.3,0.2c1.4,0.5,1.4,2.9-0.1,3.2c1,0.5,0.9,1.7,1.1,2.7c-0.5,0-1.1,0-1.6-0.1   c-0.1-0.6-0.1-1.2-0.4-1.7c-0.5-0.4-1.1-0.2-1.7-0.2c0,0.7,0,1.3,0,2c-0.5,0-1,0-1.6,0C360.4,107,360.4,104.9,360.4,102.9    M362,104.2c0,0.5,0,1.1,0,1.6c0.6,0,1.2,0.1,1.7-0.2c0.5-0.2,0.5-1.1-0.1-1.3C363.1,104.1,362.5,104.2,362,104.2z"/></g><g id="q_x23_ffffffff"/></symbol>
    <symbol id="zenni-optical" viewBox="0 0 521.81 90" xmlns="http://www.w3.org/2000/svg">
        <polygon points="22.15 90 84.96 0 62.74 0 0 90 22.15 90" />
        <polygon points="0 37.71 26.32 0 0 0 0 37.71" />
        <polygon points="84.96 52.29 58.64 90 84.96 90 84.96 52.29" />
        <polygon points="313.42 90 250.61 0 272.82 0 335.56 90 313.42 90" />
        <polygon points="335.56 37.71 309.25 0 335.56 0 335.56 37.71" />
        <polygon points="210.57 37.71 184.26 0 210.57 0 210.57 37.71" />
        <polygon points="210.57 52.29 184.26 90 210.57 90 210.57 52.29" />
        <polygon points="250.61 52.29 276.92 90 250.61 90 250.61 52.29" />
        <polygon points="439.15 90 376.34 0 398.55 0 461.3 90 439.15 90" />
        <polygon points="461.3 37.71 434.98 0 461.3 0 461.3 37.71" />
        <polygon points="376.34 52.29 402.66 90 376.34 90 376.34 52.29" />
        <rect x="125.47" width="20.01" height="90" />
        <rect x="501.8" width="20.01" height="90" />
        <polygon points="162.38 45 178.56 68.66 178.56 21.46 162.38 45" />
    </symbol>
</svg>